<svg width="23" height="14" viewBox="0 0 23 14" fill="none" xmlns="http://www.w3.org/2000/svg">
<path fill-rule="evenodd" clip-rule="evenodd" d="M7.38791 0.281525C7.29889 0.192285 7.19315 0.121483 7.07673 0.0731744C6.96031 0.0248657 6.8355 0 6.70946 0C6.58342 0 6.45861 0.0248657 6.34219 0.0731744C6.22577 0.121483 6.12003 0.192285 6.03101 0.281525L0.281448 6.03109C0.192208 6.1201 0.121407 6.22585 0.0730987 6.34227C0.0247898 6.45869 -7.67708e-05 6.58349 -7.67708e-05 6.70954C-7.67708e-05 6.83558 0.0247898 6.96039 0.0730987 7.07681C0.121407 7.19323 0.192208 7.29897 0.281448 7.38799L6.03101 13.1375C6.21095 13.3175 6.45499 13.4186 6.70946 13.4186C6.96393 13.4186 7.20797 13.3175 7.38791 13.1375C7.56784 12.9576 7.66893 12.7136 7.66893 12.4591C7.66893 12.2046 7.56784 11.9606 7.38791 11.7807L2.31488 6.70954L7.38791 1.63842C7.47715 1.54941 7.54795 1.44366 7.59626 1.32724C7.64457 1.21082 7.66943 1.08602 7.66943 0.959973C7.66943 0.833929 7.64457 0.709122 7.59626 0.592703C7.54795 0.476284 7.47715 0.370539 7.38791 0.281525Z" fill="#B7B7B7"/>
<path fill-rule="evenodd" clip-rule="evenodd" d="M23 6.70924C23 6.45509 22.899 6.21135 22.7193 6.03164C22.5396 5.85194 22.2959 5.75098 22.0417 5.75098H1.91827C1.66412 5.75098 1.42038 5.85194 1.24067 6.03164C1.06096 6.21135 0.960007 6.45509 0.960007 6.70924C0.960007 6.96338 1.06096 7.20712 1.24067 7.38683C1.42038 7.56654 1.66412 7.6675 1.91827 7.6675H22.0417C22.2959 7.6675 22.5396 7.56654 22.7193 7.38683C22.899 7.20712 23 6.96338 23 6.70924Z" fill="#B7B7B7"/>
</svg>
