<svg width="21" height="21" viewBox="0 0 21 21" fill="none" xmlns="http://www.w3.org/2000/svg">
<path fill-rule="evenodd" clip-rule="evenodd" d="M18.1781 5.8275L13.8731 1.49625L13.4138 1.3125H3.28125L2.625 1.96875V9.1875H3.9375V2.625H11.8125V7.21875L12.4688 7.875H17.0625V9.1875H18.375V6.3L18.1781 5.8275ZM13.125 6.5625V2.625L17.0625 6.5625H13.125ZM3.28125 10.5L2.625 11.1562V19.0312L3.28125 19.6875H17.7188L18.375 19.0312V11.1562L17.7188 10.5H3.28125ZM17.0625 17.0625V18.375H3.9375V11.8125H17.0625V17.0625ZM6.5625 15.75H6.1425V17.0625H5.25V13.125H6.64125C7.62563 13.125 8.12437 13.5975 8.12437 14.4375C8.12692 14.616 8.09068 14.793 8.01816 14.9561C7.94565 15.1193 7.83859 15.2648 7.70437 15.3825C7.37911 15.636 6.97459 15.7662 6.5625 15.75ZM6.48375 13.8469H6.1425V15.0675H6.48375C6.95625 15.0675 7.1925 14.8575 7.1925 14.4506C7.1925 14.0438 6.95625 13.8469 6.48375 13.8469ZM11.8125 16.5112C12.0063 16.3203 12.1579 16.0908 12.2574 15.8376C12.3569 15.5844 12.4021 15.3131 12.39 15.0413C12.39 13.7288 11.6944 13.125 10.29 13.125H8.89875V17.0625H10.29C10.5676 17.0759 10.8452 17.0341 11.1065 16.9395C11.3679 16.8449 11.6078 16.6993 11.8125 16.5112ZM9.77812 16.3406V13.8469H10.2113C10.3787 13.8362 10.5465 13.8599 10.7044 13.9163C10.8624 13.9727 11.0072 14.0607 11.13 14.175C11.2412 14.2918 11.3277 14.43 11.3841 14.5811C11.4405 14.7322 11.4657 14.8932 11.4581 15.0544C11.4778 15.4003 11.3598 15.74 11.13 15.9994C11.0098 16.1144 10.8677 16.2039 10.712 16.2625C10.5564 16.3211 10.3905 16.3477 10.2244 16.3406H9.77812ZM15.6187 15.54H14.3456V17.0625H13.4531V13.125H15.7369V13.8469H14.3456V14.8181H15.6187V15.54Z" fill="white"/>
</svg>
