<svg width="72" height="72" viewBox="0 0 72 72" fill="none" xmlns="http://www.w3.org/2000/svg">
<path d="M35.9051 63.049C50.8361 63.049 62.9401 50.945 62.9401 36.014C62.9401 21.083 50.8361 8.979 35.9051 8.979C20.9741 8.979 8.87012 21.083 8.87012 36.014C8.87012 50.945 20.9741 63.049 35.9051 63.049Z" fill="url(#paint0_linear)"/>
<path d="M36.0058 57.908C48.0848 57.908 57.8768 48.116 57.8768 36.037C57.8768 23.958 48.0848 14.166 36.0058 14.166C23.9267 14.166 14.1348 23.958 14.1348 36.037C14.1348 48.116 23.9267 57.908 36.0058 57.908Z" fill="white"/>
<path d="M55.11 25.38C57.6886 30.003 58.5024 35.4046 57.4002 40.5822C56.298 45.7597 53.3547 50.3615 49.1167 53.5334C44.8787 56.7053 39.6338 58.2319 34.3556 57.8298C29.0773 57.4277 24.1242 55.1242 20.4156 51.3469C16.707 47.5696 14.4948 42.575 14.1897 37.2902C13.8846 32.0055 15.5072 26.7895 18.7563 22.6104C22.0055 18.4314 26.6606 15.5731 31.8575 14.5662C37.0544 13.5592 42.4401 14.4719 47.015 17.135" stroke="black" stroke-width="2" stroke-linecap="round" stroke-linejoin="round"/>
<path d="M62.9401 35.997C62.9394 42.4293 60.6462 48.6507 56.4722 53.5447C52.2981 58.4387 46.5165 61.6849 40.1649 62.7006C33.8133 63.7163 27.3077 62.435 21.8156 59.0867C16.3235 55.7385 12.2045 50.5424 10.1979 44.4311C8.19126 38.3199 8.42841 31.6935 10.8668 25.7413C13.3051 19.7891 17.785 14.9008 23.5024 11.9537C29.2198 9.00661 35.8004 8.19368 42.0631 9.66082C48.3258 11.128 53.8606 14.7791 57.6741 19.959" stroke="black" stroke-width="2" stroke-linecap="round" stroke-linejoin="round"/>
<path d="M47.394 21.578L58.432 20.418L57.272 9.37999" stroke="black" stroke-width="2" stroke-linecap="round" stroke-linejoin="round"/>
<path d="M49.9751 36.354H35.8911V18.52" stroke="black" stroke-width="2" stroke-linecap="round" stroke-linejoin="round"/>
<path d="M35.8911 53.911V50.066" stroke="black" stroke-width="2" stroke-linecap="round" stroke-linejoin="round"/>
<path d="M21.1429 36.354H18.0859" stroke="black" stroke-width="2" stroke-linecap="round" stroke-linejoin="round"/>
<path d="M35.8913 40.091C37.9552 40.091 39.6283 38.4179 39.6283 36.354C39.6283 34.2901 37.9552 32.617 35.8913 32.617C33.8274 32.617 32.1543 34.2901 32.1543 36.354C32.1543 38.4179 33.8274 40.091 35.8913 40.091Z" fill="black"/>
<path d="M48.6944 49.417C49.5117 49.417 50.1744 48.7544 50.1744 47.937C50.1744 47.1196 49.5117 46.457 48.6944 46.457C47.877 46.457 47.2144 47.1196 47.2144 47.937C47.2144 48.7544 47.877 49.417 48.6944 49.417Z" fill="black"/>
<path d="M23.0869 26.197C23.9043 26.197 24.5669 25.5344 24.5669 24.717C24.5669 23.8996 23.9043 23.237 23.0869 23.237C22.2696 23.237 21.6069 23.8996 21.6069 24.717C21.6069 25.5344 22.2696 26.197 23.0869 26.197Z" fill="black"/>
<path d="M23.0869 49.417C23.9043 49.417 24.5669 48.7544 24.5669 47.937C24.5669 47.1196 23.9043 46.457 23.0869 46.457C22.2696 46.457 21.6069 47.1196 21.6069 47.937C21.6069 48.7544 22.2696 49.417 23.0869 49.417Z" fill="black"/>
<defs>
<linearGradient id="paint0_linear" x1="35.9051" y1="8.979" x2="35.9051" y2="63.049" gradientUnits="userSpaceOnUse">
<stop stop-color="#FA9C46"/>
<stop offset="1" stop-color="#FCD343"/>
</linearGradient>
</defs>
</svg>
