<svg width="56" height="72" viewBox="0 0 56 72" fill="none" xmlns="http://www.w3.org/2000/svg">
<path d="M28 0C12.5533 0 0 12.5522 0 27.9974C0 37.4232 5.46 45.3091 11.8067 50.8153C13.8133 52.5418 17.3133 55.2949 20.44 59.3545C23.8933 63.8808 27.02 68.7336 28 72C28.98 68.7336 32.1067 63.8808 35.56 59.3545C38.6867 55.2949 42.1867 52.5418 44.1933 50.8153C50.54 45.3091 56 37.4232 56 27.9974C56 12.5522 43.4467 0 28 0ZM28 11.9456C30.1082 11.9456 32.1957 12.3608 34.1433 13.1674C36.091 13.9741 37.8607 15.1565 39.3514 16.647C40.8421 18.1376 42.0246 19.9071 42.8313 21.8546C43.6381 23.8021 44.0533 25.8894 44.0533 27.9974C44.0533 30.1054 43.6381 32.1927 42.8313 34.1402C42.0246 36.0877 40.8421 37.8572 39.3514 39.3478C37.8607 40.8383 36.091 42.0207 34.1433 42.8274C32.1957 43.6341 30.1082 44.0493 28 44.0493C23.7424 44.0493 19.6592 42.3581 16.6486 39.3478C13.638 36.3375 11.9467 32.2546 11.9467 27.9974C11.9467 23.7402 13.638 19.6573 16.6486 16.647C19.6592 13.6367 23.7424 11.9456 28 11.9456Z" fill="#F75D25"/>
<path d="M44 28.5C44 37.6127 36.8366 45 28 45C19.1634 45 12 37.6127 12 28.5C12 19.3873 19.1634 12 28 12C36.8366 12 44 19.3873 44 28.5Z" fill="white"/>
</svg>
