<svg width="48" height="49" viewBox="0 0 48 49" fill="none" xmlns="http://www.w3.org/2000/svg">
<path d="M23.2532 49C22.6967 48.9162 22.1354 48.8558 21.5848 48.7439C20.2369 48.4698 18.9593 48.0235 17.8577 47.1708C17.3318 46.7638 16.9725 46.2401 16.7218 45.6373C16.6913 45.5639 16.6886 45.4753 16.6886 45.3938C16.6865 39.7107 16.685 34.0275 16.6871 28.3443C16.6873 27.8279 16.7356 27.3107 16.7183 26.7952C16.6912 25.9857 17.0499 25.369 17.6325 24.8494C18.4889 24.0856 19.5126 23.6335 20.5993 23.2977C21.59 22.9916 22.6035 22.8541 23.639 22.8982C24.5804 22.9383 25.5328 22.9224 26.4588 23.0667C27.7596 23.2693 28.9538 23.8013 30.0437 24.542C30.6712 24.9684 31.0515 25.5819 31.3429 26.2578C31.3743 26.3305 31.3706 26.421 31.3707 26.5033C31.3718 32.7698 31.3722 39.0363 31.3681 45.3028C31.368 45.4305 31.3303 45.5647 31.2822 45.685C30.827 46.8249 29.898 47.4786 28.8344 47.9834C27.6436 48.5485 26.3748 48.8274 25.0663 48.9501C24.9502 48.961 24.8353 48.9831 24.7198 49C24.2309 49 23.7421 49 23.2532 49ZM24.0451 24.8868C22.8537 24.8879 21.6825 24.9689 20.5486 25.3507C19.996 25.5368 19.4553 25.7505 19.0388 26.1767C18.6691 26.555 18.6688 26.9655 19.0327 27.3502C19.1354 27.4587 19.2474 27.5758 19.3797 27.6366C19.8201 27.8388 20.2571 28.0707 20.7216 28.1954C22.6487 28.7128 24.6025 28.7146 26.5586 28.3794C27.341 28.2454 28.1056 28.0276 28.755 27.5448C29.4569 27.023 29.4288 26.3909 28.6968 25.9127C28.6547 25.8852 28.6135 25.8533 28.5671 25.8357C27.9564 25.6049 27.3619 25.2901 26.7295 25.1681C25.8496 24.9984 24.9412 24.9736 24.0451 24.8868ZM29.2238 29.5362C27.5704 30.3318 25.8321 30.6797 24.0282 30.6885C22.2135 30.6975 20.4767 30.3057 18.8238 29.557C18.5979 30.3337 18.8041 30.9299 19.4389 31.3723C19.9582 31.7343 20.5494 31.9246 21.1628 32.0476C22.7802 32.3718 24.4099 32.3736 26.0411 32.1819C26.8365 32.0884 27.6193 31.9255 28.339 31.552C29.1262 31.1436 29.4365 30.4626 29.2238 29.5362ZM18.7601 40.552C18.7601 40.7722 18.7668 40.9637 18.7588 41.1545C18.7391 41.6202 18.9222 41.9963 19.3179 42.2323C19.6822 42.4496 20.0625 42.6694 20.4658 42.7892C22.6009 43.4234 24.7633 43.4224 26.9319 42.969C27.5937 42.8307 28.231 42.6155 28.7722 42.1909C29.0231 41.994 29.2249 41.7577 29.2428 41.4252C29.2579 41.1447 29.2459 40.8628 29.2459 40.5704C25.7621 42.0467 22.2779 42.054 18.7601 40.552ZM29.2114 36.9188C25.7169 38.4024 22.2431 38.4653 18.7646 36.872C18.7646 37.1306 18.7623 37.3552 18.765 37.5797C18.7708 38.0732 18.9867 38.4588 19.4332 38.6732C19.8849 38.8902 20.346 39.1095 20.8273 39.241C22.4652 39.6884 24.135 39.7336 25.8137 39.5201C26.7702 39.3984 27.7053 39.1934 28.5505 38.7045C29.1938 38.3325 29.4479 37.6362 29.2114 36.9188ZM18.8572 44.1985C18.5572 44.9917 18.79 45.6104 19.5324 46.0436C20.186 46.425 20.9034 46.6888 21.6501 46.7364C22.9425 46.8188 24.2411 46.828 25.5371 46.8253C26.4647 46.8234 27.3579 46.5988 28.1929 46.1955C28.4684 46.0625 28.7277 45.8777 28.9572 45.6753C29.2973 45.3754 29.3843 44.6657 29.1521 44.2102C27.5327 45.0029 25.81 45.3093 24.0028 45.3171C22.1933 45.325 20.4792 44.9852 18.8572 44.1985ZM29.2004 33.2475C29.0922 33.2932 28.9841 33.3332 28.8809 33.3831C26.7001 34.4374 24.3829 34.4913 22.0397 34.253C21.04 34.1513 20.0964 33.7963 19.1772 33.3951C19.0594 33.3437 18.9396 33.2966 18.8169 33.2459C18.6059 34.1516 18.8484 34.7219 19.5998 35.1272C20.3952 35.5563 21.2488 35.8162 22.1513 35.8394C23.3872 35.8711 24.6253 35.8723 25.8612 35.8396C26.7805 35.8152 27.6518 35.5563 28.4575 35.107C29.1877 34.6998 29.4375 34.0809 29.2004 33.2475Z" fill="url(#paint0_linear)"/>
<path d="M13.4929 0C14.0981 0.09835 14.7024 0.20185 15.3085 0.2941C17.1472 0.57395 18.9862 0.8513 20.8256 1.12615C22.8981 1.4358 24.9713 1.74135 27.044 2.04935C29.0085 2.3413 30.973 2.6336 32.9374 2.9267C35.1098 3.25085 37.2836 3.56625 39.4539 3.90355C41.732 4.2576 44.0076 4.6279 46.2824 5.0028C46.8806 5.1014 47.059 5.3062 47.0045 5.9095C46.9109 6.94525 46.789 7.97965 46.64 9.00905C46.3073 11.3078 45.9582 13.6041 45.6018 15.8994C45.179 18.6222 44.7434 21.3432 44.3089 24.0643C44.2144 24.656 44.1044 25.2453 43.9952 25.8347C43.9179 26.2523 43.6029 26.5203 43.1561 26.4893C42.5184 26.4451 41.8811 26.3759 41.2485 26.2847C39.1411 25.9808 37.035 25.6684 34.9305 25.3457C34.3243 25.2528 33.7239 25.1202 33.1234 24.9939C32.7269 24.9104 32.4796 24.6701 32.3715 24.2733C32.2299 23.753 32.6785 23.0759 33.2199 23.1019C33.9412 23.1365 34.6594 23.2389 35.3778 23.3217C35.7371 23.3631 36.0968 23.4122 36.4508 23.4843C36.633 23.5214 36.6873 23.4398 36.7419 23.3034C37.0871 22.4403 37.5913 21.6778 38.2528 21.0202C39.5164 19.7642 41.0314 19.0205 42.8241 18.8596C42.9922 18.8445 43.0509 18.7828 43.0747 18.6234C43.4053 16.4168 43.7417 14.2112 44.0763 12.0052C44.0788 11.989 44.0766 11.9721 44.0766 11.9286C43.9476 11.877 43.8095 11.8239 43.6731 11.767C41.3907 10.8154 40.1404 9.08995 39.7843 6.6946C39.7745 6.6287 39.7662 6.56255 39.7574 6.4965C39.6948 6.02475 39.6944 6.0272 39.2247 5.95745C36.2112 5.5099 33.198 5.061 30.1847 4.61295C26.7051 4.09575 23.2252 3.581 19.7465 3.0578C19.4662 3.01565 19.3333 3.1461 19.2046 3.3561C18.8782 3.88855 18.5923 4.45795 18.1913 4.93055C17.0406 6.2868 15.5928 7.1546 13.7769 7.3465C13.3213 7.39465 13.3221 7.4024 13.2472 7.8419C13.1651 8.3236 12.7001 8.7596 12.2359 8.7901C11.8157 8.8177 11.2972 8.4554 11.2104 8.01385C11.1604 7.7601 11.1853 7.482 11.2259 7.22245C11.5565 5.109 11.9056 2.9984 12.2324 0.8844C12.3081 0.3952 12.614 0.15625 13.0378 0C13.1895 0 13.3412 0 13.4929 0ZM38.8089 23.8248C39.9342 23.9918 41.0413 24.156 42.1747 24.3242C42.3602 23.171 42.5376 22.0689 42.7152 20.9646C41.2991 20.8112 39.2032 22.265 38.8089 23.8248ZM41.8192 6.34925C41.8506 7.9465 42.6193 9.1431 44.121 9.75805C44.3124 9.8364 44.3971 9.79255 44.4284 9.5915C44.5141 9.04105 44.6119 8.49245 44.6987 7.9422C44.7578 7.56725 44.8065 7.19075 44.8617 6.80225C43.8275 6.6483 42.832 6.50005 41.8192 6.34925ZM14.1238 2.28535C14.0958 2.38775 14.0689 2.45775 14.0579 2.5301C13.9328 3.3523 13.8075 4.17455 13.688 4.99755C13.648 5.27295 13.6993 5.32355 13.9804 5.27865C15.4125 5.05005 16.4471 4.2816 17.1049 3.01C17.1475 2.9277 17.1625 2.8315 17.2003 2.7097C16.1558 2.5256 15.154 2.3261 14.1238 2.28535Z" fill="url(#paint1_linear)"/>
<path d="M0.0237647 28.3748C0.0237647 23.5506 0.03322 18.7264 0.0125397 13.9022C0.00975869 13.256 0.227838 12.7319 0.610146 12.2565C1.30291 11.3949 2.2447 10.8793 3.26415 10.4991C4.99807 9.85236 6.79134 9.68521 8.63098 9.86626C9.93419 9.99451 11.1857 10.2886 12.3621 10.8637C13.3793 11.361 14.2152 12.0448 14.6535 13.1184C14.6994 13.2308 14.7391 13.3558 14.739 13.475C14.7285 22.9983 14.7143 32.5217 14.6974 42.0451C14.6967 42.4697 14.6668 42.8943 14.6524 43.3189C14.6372 43.7658 14.4296 44.1334 14.159 44.4711C13.5778 45.1969 12.8116 45.6803 11.9563 46.0127C8.77205 47.2498 5.59916 47.2378 2.45934 45.8533C1.75393 45.5423 1.12518 45.108 0.627286 44.5106C0.279463 44.0933 0.0885361 43.6313 0.0862102 43.0719C0.0658332 38.1729 0.0307424 33.2739 0 28.375C0.00793841 28.3749 0.0158768 28.3749 0.0237647 28.3748ZM7.37438 15.5007C7.80407 15.5007 8.2337 15.5001 8.66339 15.5008C9.58622 15.5023 10.4725 15.3122 11.3136 14.9498C11.6553 14.8026 11.9921 14.6064 12.272 14.3654C12.6953 14.0009 12.6912 13.4564 12.2935 13.0626C12.1244 12.8951 11.9177 12.741 11.6985 12.6519C11.2257 12.4596 10.7447 12.2637 10.2477 12.1576C8.94654 11.8797 7.62169 11.8918 6.29759 11.9275C5.25983 11.9555 4.25246 12.133 3.30132 12.5465C2.99187 12.681 2.68672 12.8696 2.44422 13.0999C2.04528 13.4789 2.09483 14.0013 2.49767 14.3707C2.96189 14.7964 3.53325 15.0093 4.12059 15.2C5.18227 15.5449 6.28055 15.5062 7.37438 15.5007ZM2.11799 16.4585C2.09079 16.4733 2.06363 16.4882 2.03643 16.5031C2.1056 16.9018 2.17649 17.3002 2.24323 17.6992C2.28192 17.9304 2.41545 18.0915 2.61103 18.2104C3.4391 18.7135 4.3236 19.0977 5.29922 19.1424C6.55172 19.1998 7.80827 19.201 9.06248 19.1836C10.1196 19.169 11.0938 18.8228 12.002 18.3005C12.1722 18.2026 12.3825 18.0797 12.4498 17.9178C12.6383 17.4642 12.6942 16.9752 12.6799 16.4528C12.5764 16.4907 12.4969 16.5132 12.4232 16.5478C10.908 17.257 9.32996 17.6604 7.63686 17.559C6.82228 17.5103 5.99831 17.5594 5.19091 17.4634C4.29605 17.3569 3.44724 17.0357 2.62226 16.6713C2.4554 16.5976 2.28616 16.5293 2.11799 16.4585ZM2.14191 42.0814C1.93126 42.8399 2.16946 43.5076 2.81748 43.8919C3.13208 44.0785 3.47212 44.2445 3.82242 44.3474C6.04563 44.9998 8.29074 45.0069 10.5318 44.4615C11.0533 44.3346 11.5641 44.0989 12.029 43.8281C12.6203 43.4836 12.8455 42.7024 12.6085 42.0823C12.4781 42.1377 12.3467 42.19 12.2181 42.2485C11.3969 42.6219 10.5486 42.937 9.65584 43.0613C8.9428 43.1606 8.21201 43.1305 7.48987 43.1717C5.69655 43.2742 3.98716 42.9668 2.37379 42.1726C2.30027 42.1362 2.22068 42.112 2.14191 42.0814ZM2.15541 23.876C1.95583 24.414 2.24556 25.2962 2.73127 25.5966C3.41129 26.0172 4.16175 26.2628 4.94538 26.3959C6.35736 26.6359 7.7796 26.6266 9.20007 26.4868C10.1713 26.3912 11.1027 26.1391 11.9491 25.6417C12.1255 25.5381 12.331 25.407 12.4126 25.2368C12.6181 24.8083 12.6927 24.3389 12.6821 23.8394C9.16265 25.381 5.66019 25.3488 2.15541 23.876ZM12.7154 20.1589C9.13039 21.751 5.60184 21.773 2.04963 20.1506C2.08836 20.483 2.13119 20.771 2.15298 21.0605C2.17442 21.3451 2.30467 21.5598 2.51349 21.7491C2.91365 22.1118 3.37833 22.3634 3.8965 22.4958C6.07137 23.0516 8.26177 23.0391 10.4541 22.6113C11.1567 22.4742 11.8085 22.2009 12.3186 21.6788C12.4311 21.5637 12.5414 21.412 12.5727 21.261C12.6447 20.9132 12.6674 20.5554 12.7154 20.1589ZM2.04776 31.1059C2.09028 31.4375 2.12466 31.7084 2.15981 31.9792C2.21264 32.3867 2.40756 32.716 2.78204 32.8929C3.28812 33.1321 3.79471 33.4036 4.33255 33.5375C6.06818 33.9695 7.83041 34.0044 9.59668 33.7214C10.4482 33.585 11.2862 33.3885 12.0103 32.8985C12.2156 32.7596 12.433 32.5544 12.5105 32.3336C12.6395 31.9655 12.6601 31.5603 12.7263 31.1707C12.7045 31.1548 12.6828 31.1389 12.661 31.123C10.988 31.9021 9.22985 32.2792 7.38662 32.3086C5.52286 32.3383 3.77676 31.8755 2.04776 31.1059ZM12.598 34.8129C12.4416 34.8765 12.3029 34.9335 12.1638 34.9894C11.2582 35.3533 10.3425 35.7132 9.36753 35.8136C8.52439 35.9003 7.66922 35.8854 6.8192 35.8902C6.33192 35.8929 5.83898 35.8819 5.35803 35.8129C4.36158 35.6699 3.42186 35.3233 2.49519 34.9441C2.37561 34.8951 2.25431 34.8504 2.07036 34.7791C2.10277 35.1021 2.13715 35.3626 2.15333 35.6243C2.17988 36.0533 2.39841 36.3426 2.76095 36.5695C3.5645 37.0726 4.45517 37.2908 5.38225 37.3981C6.72733 37.5538 8.07483 37.5117 9.41835 37.3915C10.35 37.3082 11.2344 37.0386 12.035 36.5466C12.525 36.2453 12.8063 35.3801 12.598 34.8129ZM7.68969 41.1581C8.14522 41.1225 8.94442 41.0819 9.73786 40.9917C10.4677 40.9086 11.1683 40.7141 11.8163 40.3431C12.472 39.9677 12.6958 39.3963 12.6831 38.69C12.6803 38.5359 12.6193 38.468 12.4638 38.5232C12.2977 38.5821 12.1324 38.6439 11.9695 38.7108C9.78751 39.6068 7.53189 39.8131 5.21053 39.4252C4.25014 39.2648 3.34015 38.9516 2.44731 38.5763C2.11288 38.4357 2.05752 38.4876 2.09685 38.8367C2.11177 38.969 2.13028 39.1012 2.13837 39.234C2.15895 39.572 2.32424 39.8261 2.57685 40.0454C2.95749 40.3758 3.394 40.5996 3.87238 40.7481C5.00403 41.0994 6.17447 41.1264 7.68969 41.1581ZM12.6178 27.5136C9.12164 29.0268 5.63177 29.0931 2.15025 27.4992C1.9708 28.2479 2.23661 28.9309 2.84853 29.3122C3.57461 29.7646 4.38802 30.0117 5.22636 30.0862C6.18832 30.1716 7.16106 30.1678 8.12843 30.1545C8.78171 30.1455 9.4413 30.0961 10.0844 29.9863C10.7634 29.8705 11.424 29.6535 12.0028 29.2576C12.5623 28.875 12.822 28.1552 12.6178 27.5136Z" fill="url(#paint2_linear)"/>
<path d="M47.9995 37.0286C47.9995 39.0362 48.0021 41.0438 47.9941 43.0513C47.9935 43.1992 47.9437 43.3624 47.8697 43.4922C47.2908 44.5071 46.362 45.1087 45.3115 45.5478C43.5947 46.2655 41.7941 46.4847 39.9456 46.3755C38.6091 46.2965 37.3084 46.055 36.0773 45.5084C35.2583 45.1448 34.5556 44.6285 33.9458 43.9792C33.6154 43.6274 33.5018 43.1983 33.4737 42.7444C33.431 42.0548 33.3913 41.3635 33.3915 40.673C33.392 37.8075 33.4569 34.941 33.3971 32.0769C33.368 30.6814 33.9882 29.7714 35.1138 29.0883C36.6021 28.1849 38.2254 27.7012 39.9671 27.6573C41.3404 27.6226 42.7157 27.6591 44.0477 28.0564C45.2184 28.4055 46.3181 28.895 47.2281 29.7307C47.6902 30.1551 47.9626 30.6413 47.9521 31.3067C47.9222 33.2136 47.9416 35.1213 47.9416 37.0286C47.9609 37.0286 47.9802 37.0286 47.9995 37.0286ZM40.6493 33.4087C40.6521 33.4309 40.655 33.4532 40.6578 33.4755C41.6003 33.366 42.547 33.2828 43.484 33.1385C44.1746 33.0321 44.8478 32.8277 45.426 32.4119C46.1574 31.8859 46.1283 31.0983 45.3404 30.6643C44.9252 30.4356 44.4794 30.2366 44.023 30.1099C42.0917 29.5739 40.1349 29.5682 38.1727 29.9295C37.3995 30.0718 36.6492 30.2945 36.0026 30.7595C35.4009 31.1922 35.3686 31.8274 35.9515 32.2867C36.2484 32.5207 36.5999 32.7087 36.9552 32.8445C38.1416 33.2981 39.3891 33.4041 40.6493 33.4087ZM35.4828 41.6159C35.2995 42.4201 35.5431 43.0648 36.2489 43.4457C36.6798 43.6781 37.1486 43.8672 37.623 43.9909C39.2979 44.4277 41.0015 44.4454 42.7101 44.2267C43.5128 44.1239 44.3096 43.9663 45.0316 43.5873C46.06 43.0475 46.0299 42.7676 46.0258 41.6261C42.5174 43.1418 39.01 43.1736 35.4828 41.6159ZM35.3935 34.2872C35.4645 34.6831 35.5293 35.0224 35.5853 35.3631C35.6379 35.6835 35.8219 35.8991 36.0967 36.065C36.693 36.4249 37.3362 36.6644 38.0175 36.7975C39.5684 37.1005 41.131 37.1086 42.6962 36.9342C43.6331 36.8298 44.5298 36.5857 45.3429 36.0947C45.8411 35.7938 46.1805 34.8971 46.0137 34.3187C42.4986 35.8803 38.9796 35.8688 35.3935 34.2872ZM40.7405 40.6404C41.1193 40.6404 41.4983 40.6469 41.8769 40.6392C42.9399 40.6176 43.9659 40.4282 44.9315 39.9686C45.5911 39.6546 46.0352 39.21 46.0323 38.4199C46.0306 37.9799 46.0257 37.9484 45.5995 38.1144C45.5761 38.1236 45.5535 38.1347 45.5305 38.1449C44.3769 38.6584 43.169 38.9667 41.9087 39.0687C39.9598 39.2263 38.0619 39.0266 36.2461 38.2631C36.0531 38.1819 35.8569 38.1041 35.6553 38.0496C35.5981 38.0342 35.4534 38.1121 35.4556 38.1383C35.4949 38.5957 35.4427 39.0788 35.8123 39.4517C36.2587 39.902 36.8316 40.1112 37.4173 40.3038C38.4998 40.6598 39.6212 40.6452 40.7405 40.6404Z" fill="url(#paint3_linear)"/>
<path d="M27.2334 20.6716C26.6682 20.6673 26.2546 20.2694 26.2281 19.7043C26.2254 19.646 26.2209 19.5875 26.2234 19.5294C26.2359 19.2461 26.1326 19.0798 25.8511 18.9331C25.0661 18.5241 24.3531 18.0041 23.7642 17.3367C23.3906 16.9132 23.388 16.3955 23.737 16.0057C24.0136 15.6968 24.7197 15.5256 25.1424 15.8825C25.4754 16.1636 25.8081 16.4463 26.1552 16.7098C26.8489 17.2362 27.6228 17.4722 28.5008 17.3037C29.0215 17.2038 29.2906 16.8637 29.4205 16.386C29.5448 15.9293 29.3322 15.5919 28.9739 15.3604C28.4891 15.0471 27.9689 14.7879 27.4725 14.4915C26.9402 14.1736 26.3841 13.8817 25.8987 13.503C25.0721 12.858 24.5685 12.0213 24.6695 10.9309C24.7448 10.1184 25.1547 9.4706 25.7528 8.9312C26.2207 8.5091 26.7656 8.21715 27.3729 8.042C27.6818 7.95295 27.9002 7.83571 27.9283 7.44661C27.9583 7.03271 28.3436 6.73001 28.7675 6.66596C29.2318 6.59576 29.6337 6.76155 29.8322 7.1618C29.9198 7.3387 29.9383 7.56221 29.9396 7.76491C29.9415 8.06281 30.0508 8.25846 30.3178 8.41031C30.9262 8.75636 31.4278 9.226 31.7856 9.82611C32.146 10.4307 32.0181 10.9882 31.4705 11.3219C31.0315 11.5894 30.614 11.5299 30.2697 11.1478C30.0848 10.9426 29.9121 10.726 29.7189 10.5288C29.1021 9.89896 28.3392 9.82981 27.5455 10.058C26.9017 10.2431 26.5475 11.0198 26.8363 11.5346C26.9347 11.71 27.0887 11.8778 27.2583 11.9868C27.6591 12.2445 28.073 12.4881 28.5024 12.6951C29.1957 13.0294 29.8507 13.4182 30.4297 13.921C31.9319 15.2257 31.8681 17.3114 30.2977 18.5356C29.8486 18.8857 29.3423 19.1255 28.8007 19.295C28.4991 19.3894 28.3008 19.5279 28.2547 19.8871C28.1948 20.3543 27.7283 20.6753 27.2334 20.6716Z" fill="url(#paint4_linear)"/>
<defs>
<linearGradient id="paint0_linear" x1="0" y1="0" x2="51.7325" y2="4.32194" gradientUnits="userSpaceOnUse">
<stop stop-color="#FA9C46"/>
<stop offset="1" stop-color="#FCD343"/>
</linearGradient>
<linearGradient id="paint1_linear" x1="0" y1="0" x2="51.7325" y2="4.32194" gradientUnits="userSpaceOnUse">
<stop stop-color="#FA9C46"/>
<stop offset="1" stop-color="#FCD343"/>
</linearGradient>
<linearGradient id="paint2_linear" x1="0" y1="0" x2="51.7325" y2="4.32194" gradientUnits="userSpaceOnUse">
<stop stop-color="#FA9C46"/>
<stop offset="1" stop-color="#FCD343"/>
</linearGradient>
<linearGradient id="paint3_linear" x1="0" y1="0" x2="51.7325" y2="4.32194" gradientUnits="userSpaceOnUse">
<stop stop-color="#FA9C46"/>
<stop offset="1" stop-color="#FCD343"/>
</linearGradient>
<linearGradient id="paint4_linear" x1="0" y1="0" x2="51.7325" y2="4.32194" gradientUnits="userSpaceOnUse">
<stop stop-color="#FA9C46"/>
<stop offset="1" stop-color="#FCD343"/>
</linearGradient>
</defs>
</svg>
