<svg width="79" height="84" viewBox="0 0 79 84" fill="none" xmlns="http://www.w3.org/2000/svg">
<circle cx="23.5" cy="60.5" r="23.5" fill="url(#paint0_linear)"/>
<path d="M21.1707 67.9802C19.919 67.9802 18.7612 67.9867 17.6036 67.9785C16.3616 67.9696 16.0024 67.6114 16.0022 66.3551C15.9995 44.7782 15.9993 23.2013 16.0014 1.62437C16.0014 0.331915 16.3463 0.000721247 17.6664 0.000721247C33.8758 8.73822e-05 50.0852 0.000721247 66.2947 0.00293977C67.5824 0.00309824 67.9392 0.36456 67.9427 1.64909C67.9455 2.7284 67.9433 3.80771 67.9433 5.01744C69.0913 5.01744 70.1887 5.01665 71.2864 5.0176C72.8041 5.01887 73.1013 5.30902 73.1015 6.81984C73.1031 18.7043 73.1024 30.5888 73.1021 42.4732C73.1021 42.6579 73.1078 42.8436 73.0929 43.0275C73.0363 43.7293 72.5828 44.2049 71.9612 44.2244C71.3152 44.2447 70.792 43.7534 70.7669 43.0127C70.7312 41.9575 70.7499 40.9004 70.7499 39.844C70.7491 29.3593 70.7493 18.8745 70.7493 8.38976C70.7493 8.07965 70.7493 7.76969 70.7493 7.42645C54.9841 7.42645 39.3177 7.42645 23.5955 7.42645C23.5955 28.4906 23.5955 49.497 23.5955 70.6393C23.9186 70.6393 24.247 70.6393 24.5756 70.6393C32.2705 70.6391 39.9653 70.6382 47.6602 70.6416C48.0023 70.6418 48.3547 70.6378 48.6841 70.7142C49.2729 70.8508 49.5791 71.2666 49.5575 71.8685C49.5359 72.4694 49.202 72.8495 48.6063 72.9617C48.3752 73.0053 48.1324 72.9977 47.895 72.9977C39.5654 72.9995 31.2357 73.0001 22.906 72.9985C21.511 72.9982 21.1742 72.6599 21.1715 71.2776C21.1691 70.2241 21.1707 69.1704 21.1707 67.9802ZM18.4018 65.5804C19.3675 65.5804 20.2293 65.5804 21.1594 65.5804C21.1594 65.2468 21.1594 64.9616 21.1594 64.6762C21.1602 45.3488 21.161 26.0213 21.1621 6.69402C21.1623 5.34357 21.5308 4.98226 22.9111 4.98226C36.6317 4.98179 50.3521 4.98227 64.0727 4.98242C64.5614 4.98242 65.0499 4.98242 65.5226 4.98242C65.5226 4.04018 65.5226 3.23312 65.5226 2.43492C49.7852 2.43492 34.1022 2.43492 18.4017 2.43492C18.4018 23.5171 18.4018 44.5229 18.4018 65.5804Z" fill="black"/>
<path d="M66.159 72.9988C62.4311 72.999 58.7033 73.0012 54.9753 72.9977C53.6473 72.9965 53.3219 72.6757 53.3163 71.3765C53.3112 70.2146 53.3065 69.0527 53.3177 67.8908C53.3388 65.7042 54.637 64.4187 56.8172 64.3612C57.4996 64.3431 58.2046 64.3143 58.8556 64.1333C60.7535 63.6056 62.0655 61.8284 62.0893 59.8146C62.1131 57.8081 62.1069 55.8008 62.0833 53.7943C62.0799 53.5038 61.9646 53.1772 61.8029 52.9319C60.2571 50.5871 60.5868 47.7018 62.6294 45.8911C64.6046 44.1402 67.6027 44.1134 69.6011 45.8288C71.6918 47.6235 72.0509 50.5356 70.501 52.9212C70.3274 53.1882 70.2124 53.5444 70.2078 53.8613C70.1808 55.7621 70.187 57.6636 70.1956 59.5649C70.2081 62.3753 72.1838 64.348 74.9879 64.3721C75.4626 64.3762 75.9484 64.355 76.4092 64.4463C77.7766 64.7172 78.8464 65.8409 78.9326 67.2414C79.0263 68.7672 79.0051 70.3025 78.9694 71.8322C78.9499 72.6643 78.4886 72.9939 77.5014 72.9957C73.7206 73.0028 69.9398 72.9987 66.159 72.9988ZM76.6407 70.5962C76.6407 69.8126 76.6423 69.1302 76.6404 68.4478C76.6359 66.8703 76.5291 66.7643 74.9292 66.737C71.0372 66.6706 68.029 63.8566 67.8472 60.0548C67.7791 58.6328 67.8285 57.205 67.8245 55.7797C67.8239 55.5319 67.8244 55.2842 67.8244 55.1074C66.639 55.1074 65.5775 55.1074 64.4985 55.1074C64.2503 58.1933 65.2099 61.5225 62.7059 64.3718C64.2976 64.3718 65.6859 64.3593 67.0739 64.3765C67.8751 64.3865 68.3868 64.874 68.3783 65.5581C68.3702 66.2018 67.8677 66.6762 67.1248 66.7321C66.9408 66.7459 66.755 66.7363 66.57 66.7363C63.3197 66.7366 60.0695 66.7394 56.8191 66.7345C56.2606 66.7337 55.7558 66.8759 55.7196 67.5001C55.6609 68.5152 55.7037 69.536 55.7037 70.5963C62.7011 70.5962 69.6131 70.5962 76.6407 70.5962ZM66.1728 46.9322C64.5386 46.9219 63.2284 48.19 63.2049 49.8048C63.1812 51.4322 64.5354 52.7926 66.1646 52.7781C67.7806 52.7635 69.0908 51.4528 69.0878 49.8536C69.0848 48.2237 67.8064 46.9425 66.1728 46.9322Z" fill="black"/>
<path d="M47.7918 36.6625C42.1361 36.6632 36.4803 36.6633 30.8248 36.6627C30.5871 36.6627 30.3445 36.6838 30.1125 36.6451C29.5245 36.5469 29.1537 36.1933 29.1014 35.5948C29.0455 34.9562 29.3733 34.5274 29.9818 34.36C30.2549 34.2849 30.5574 34.3027 30.8467 34.3027C42.1316 34.3001 53.4166 34.3005 64.7016 34.3008C65.9255 34.3008 66.5025 34.6694 66.5241 35.4604C66.5465 36.2778 65.9591 36.6619 64.6798 36.6621C59.0503 36.6622 53.421 36.6621 47.7918 36.6625Z" fill="black"/>
<path d="M47.7261 24.0198C42.1242 24.0199 36.5222 24.0204 30.9203 24.0187C30.6301 24.0185 30.2653 24.1077 30.0657 23.9686C29.6921 23.7081 29.2615 23.3593 29.1334 22.9584C28.9573 22.4071 29.3183 21.9334 29.8964 21.7574C30.1922 21.6672 30.5214 21.6602 30.8354 21.6601C42.145 21.6555 53.4545 21.6561 64.7642 21.6564C64.9227 21.6564 65.082 21.6502 65.2397 21.6629C66.0324 21.7269 66.5449 22.2187 66.5224 22.8869C66.4997 23.5605 65.9837 24.0131 65.1664 24.0147C60.9122 24.0231 56.6578 24.0193 52.4035 24.0196C50.8442 24.0196 49.2851 24.0196 47.7261 24.0198Z" fill="black"/>
<path d="M47.8364 14.1026C52.0886 14.1026 56.3406 14.1018 60.5928 14.1044C60.8825 14.1045 61.2539 14.0218 61.4447 14.166C61.8093 14.4416 62.2934 14.8409 62.313 15.2109C62.3329 15.5835 61.9107 16.0589 61.5626 16.3429C61.3431 16.5219 60.9039 16.459 60.5633 16.4592C52.0591 16.4643 43.5547 16.4638 35.0505 16.4624C33.8264 16.4622 33.2501 16.0882 33.2314 15.2965C33.2122 14.4817 33.7975 14.1028 35.0801 14.1026C39.3322 14.1025 43.5844 14.1026 47.8364 14.1026Z" fill="black"/>
<path d="M43.2954 46.9525C47.4989 46.9524 51.7026 46.9415 55.9059 46.9693C56.3192 46.972 56.8276 47.1029 57.1239 47.3642C57.7735 47.9371 57.4514 48.9887 56.5942 49.2427C56.3228 49.323 56.0204 49.3196 55.7323 49.3196C47.4575 49.3234 39.1827 49.3226 30.9079 49.3226C30.7492 49.3226 30.5904 49.3278 30.4321 49.3202C29.5782 49.279 29.065 48.803 29.0923 48.0816C29.1183 47.3959 29.6219 46.9573 30.4472 46.9559C34.7298 46.9491 39.0126 46.9527 43.2954 46.9525Z" fill="black"/>
<defs>
<linearGradient id="paint0_linear" x1="0" y1="37" x2="50.6401" y2="41.3188" gradientUnits="userSpaceOnUse">
<stop stop-color="#FA9C46"/>
<stop offset="1" stop-color="#FCD343"/>
</linearGradient>
</defs>
</svg>
