<svg width="109" height="83" viewBox="0 0 109 83" fill="none" xmlns="http://www.w3.org/2000/svg">
<circle cx="23.5" cy="23.5" r="23.5" fill="url(#paint0_linear)"/>
<path d="M75.2592 10C75.3861 10.0365 75.5112 10.0805 75.6399 10.1085C76.9694 10.3973 77.941 11.5531 77.9935 12.9157C78.002 13.135 77.9995 13.3549 77.9995 13.5745C77.9998 23.5745 77.9997 33.5744 77.9997 43.5744C77.9997 43.7891 77.9997 44.0037 77.9997 44.2696C78.2511 44.2696 78.4488 44.278 78.6457 44.2684C83.6868 44.0228 84.2931 45.0347 84.2284 49.8718C84.1255 57.5562 84.1992 65.243 84.2029 72.9288C84.2034 73.9444 84.0631 73.8281 85.0747 73.8286C92.4128 73.8318 99.7509 73.84 107.089 73.8177C107.973 73.8149 108.621 74.0664 109 74.8892C109 75.1257 109 75.3623 109 75.5989C108.682 76.4359 108.074 76.7395 107.189 76.7374C99.6646 76.7194 92.1397 76.7278 84.6148 76.7243C84.2967 76.7241 83.9697 76.7233 83.6619 76.6548C82.2043 76.3308 81.3094 75.1443 81.3089 73.5453C81.3063 64.9961 81.3076 56.447 81.3075 47.8978C81.3075 47.6828 81.3075 47.468 81.3075 47.219C80.1843 47.219 79.119 47.219 77.9997 47.219C77.9997 47.4446 77.9997 47.6429 77.9997 47.8412C77.9996 53.3154 77.997 58.7896 78.0073 64.2637C78.0077 64.5025 78.0848 64.7619 78.1944 64.9766C81.7398 71.9147 78.0461 80.4126 70.5539 82.4862C69.6206 82.7445 68.6408 82.833 67.6826 83.0002C67.3795 83.0002 67.0764 83.0002 66.7734 83.0002C66.626 82.9723 66.4798 82.9333 66.3312 82.9181C61.5414 82.4314 58.1221 79.9816 56.0375 75.6474C55.8627 75.2839 55.6812 75.1743 55.2918 75.1749C47.3961 75.187 39.5005 75.1871 31.6048 75.1748C31.2057 75.1741 31.0418 75.2816 30.8987 75.674C29.5708 79.3139 27.0274 81.6471 23.2937 82.6433C22.6165 82.824 21.9075 82.8842 21.2132 83.0001C20.9101 83.0001 20.607 83.0001 20.304 83.0001C20.1571 82.971 20.0114 82.927 19.8631 82.9149C15.3967 82.5517 11.6019 79.4153 10.4049 75.079C10.2404 74.4832 10.1335 73.8712 10 73.2667C10 72.557 10 71.8473 10 71.1376C10.0302 71.0442 10.0772 70.9528 10.088 70.8572C10.2269 69.6369 10.5549 68.4672 11.1403 67.3924C11.4554 66.8139 11.5778 66.2589 11.5693 65.5901C11.5254 62.1438 11.5446 58.6968 11.5543 55.2501C11.5556 54.7964 11.5856 54.3342 11.6754 53.8908C12.2663 50.974 14.7107 48.9638 17.6766 48.9344C18.208 48.9291 18.7394 48.9337 19.2939 48.9337C19.2939 48.6595 19.2939 48.4583 19.2939 48.2571C19.2939 39.6909 19.2897 31.1248 19.2964 22.5586C19.2985 19.8511 21.2155 17.823 23.8366 17.8162C31.3615 17.7967 38.8864 17.8046 46.4113 17.816C47.9504 17.8183 49.35 18.311 50.6217 19.1798C51.8085 19.9907 52.5941 21.1214 53.2991 22.3555C56.9877 28.8137 60.7022 35.2572 64.4211 41.698C65.2181 43.0784 65.6171 44.5409 65.6012 46.1378C65.5783 48.4523 65.5954 50.7672 65.5955 53.0819C65.5955 53.2632 65.5955 53.4445 65.5955 53.6334C66.7225 53.6334 67.788 53.6334 68.8632 53.6334C68.8632 40.0789 68.8632 26.5382 68.8632 12.9533C68.6511 12.9533 68.4691 12.9537 68.2872 12.9532C67.395 12.9508 66.5022 12.9672 65.6108 12.9396C64.9193 12.9182 64.3682 12.3897 64.2651 11.7172C64.1634 11.0534 64.5528 10.3884 65.1904 10.1388C65.3132 10.0907 65.4376 10.0462 65.5612 10C68.7939 10 72.0265 10 75.2592 10ZM54.9836 58.8342C54.8644 58.7056 54.766 58.5927 54.6605 58.4867C53.2568 57.0762 51.849 55.6699 50.4485 54.2562C48.8761 52.669 46.9846 51.8508 44.7494 51.8506C35.7605 51.8496 26.7716 51.8432 17.7827 51.8532C15.7679 51.8554 14.4555 53.2186 14.4521 55.2522C14.4477 57.8033 14.4506 60.3544 14.4522 62.9055C14.4523 63.0466 14.4696 63.1877 14.4807 63.354C21.9305 58.2384 31.5832 63.6951 31.5562 72.227C37.8091 72.227 44.062 72.227 50.3518 72.227C49.967 67.0839 51.5108 62.6257 54.9836 58.8342ZM29.9684 20.7381C29.9684 21.0017 29.9684 21.2011 29.9684 21.4007C29.9684 25.4393 29.9683 29.4779 29.9684 33.5166C29.9685 35.4937 29.9562 37.4708 29.9734 39.4477C29.9869 41.0027 30.8931 42.3231 32.344 42.5643C33.6381 42.7795 34.9792 42.7089 36.3533 42.7667C36.3533 42.4485 36.3533 42.2501 36.3533 42.0516C36.3533 36.6949 36.3532 31.3383 36.3537 25.9816C36.3537 25.779 36.348 25.5753 36.3648 25.3737C36.4257 24.6438 36.9933 24.0993 37.7263 24.0574C38.4516 24.0159 39.0805 24.5013 39.2116 25.2272C39.2561 25.4743 39.2602 25.7312 39.2603 25.9836C39.2629 31.3233 39.2622 36.6631 39.2622 42.0028C39.2622 42.219 39.2622 42.435 39.2622 42.6698C46.7247 42.6698 54.1324 42.6698 61.5942 42.6698C61.4756 42.4513 61.3914 42.288 61.3 42.1291C57.7844 36.0179 54.2227 29.9328 50.7767 23.7824C49.5738 21.6356 47.9315 20.6831 45.5006 20.7174C40.5516 20.7873 35.601 20.7383 30.6511 20.7383C30.4512 20.7381 30.2513 20.7381 29.9684 20.7381ZM57.2028 56.9247C58.7785 55.773 60.4274 54.9076 62.2362 54.3781C62.6266 54.2638 62.7093 54.0743 62.7069 53.6985C62.6907 51.2146 62.6819 48.7304 62.7118 46.2468C62.7182 45.717 62.5575 45.61 62.0588 45.6107C52.5463 45.6257 43.0337 45.6229 33.5211 45.6181C33.0512 45.6179 32.5724 45.615 32.1132 45.5299C29.1001 44.972 27.0592 42.5111 27.0535 39.4129C27.0424 33.4143 27.05 27.4155 27.0499 21.4167C27.0499 21.2032 27.0499 20.9897 27.0499 20.738C26.0398 20.738 25.0991 20.7368 24.1585 20.7383C22.8142 20.7404 22.2106 21.3405 22.2104 22.6794C22.2097 31.2467 22.21 39.8138 22.21 48.3811C22.21 48.5577 22.21 48.7342 22.21 48.9333C22.4925 48.9333 22.6933 48.9333 22.8941 48.9333C30.2685 48.9348 37.6429 48.9208 45.0171 48.9467C47.4723 48.9553 49.686 49.7642 51.562 51.3603C52.5482 52.1994 53.4367 53.1551 54.3591 54.0686C55.3043 55.0049 56.2371 55.9539 57.2028 56.9247ZM67.2954 61.1887C62.1073 61.1645 57.8965 65.3382 57.8637 70.5373C57.8306 75.7605 62.0083 80.0149 67.2005 80.0457C72.3722 80.0764 76.6306 75.8335 76.6484 70.6322C76.6661 65.4495 72.4698 61.2127 67.2954 61.1887ZM12.9093 72.1494C12.9029 76.4894 16.3923 80.0205 20.7119 80.0457C25.0418 80.0708 28.588 76.5294 28.5937 72.1743C28.5995 67.8204 25.057 64.2614 20.735 64.2789C16.4048 64.2963 12.9157 67.8055 12.9093 72.1494ZM71.8489 12.9558C71.8489 23.4184 71.8489 33.8295 71.8489 44.2395C72.9405 44.2395 73.9936 44.2395 75.0908 44.2395C75.0908 44.0104 75.0908 43.8111 75.0908 43.6118C75.0908 33.6259 75.0908 23.6401 75.0906 13.6542C75.0906 13.5021 75.1184 13.3407 75.0757 13.2013C75.0459 13.1038 74.9192 12.9677 74.8337 12.9662C73.8453 12.9499 72.8565 12.9558 71.8489 12.9558ZM75.017 60.9796C75.0427 60.9416 75.0743 60.9165 75.0747 60.891C75.0822 60.3677 75.0686 59.8433 75.0974 59.3214C75.1146 59.0076 74.9904 58.8335 74.7329 58.676C71.2472 56.5445 67.5174 55.9501 63.5828 57.0223C57.8603 58.5817 53.8302 63.414 53.2728 69.3194C53.1821 70.2809 53.2601 71.2583 53.2601 72.2313C53.9227 72.2313 54.4711 72.2313 55.0067 72.2313C54.6146 66.8267 56.5304 62.5427 61.2538 59.8766C65.9988 57.1983 70.6501 57.8363 75.017 60.9796ZM71.811 47.2123C71.811 49.1739 71.811 51.0811 71.811 52.9882C71.811 54.1741 71.8159 54.1608 72.8992 54.5661C73.6185 54.8353 74.3212 55.1492 75.0606 55.4551C75.0606 52.6953 75.0606 49.9678 75.0606 47.2123C73.9787 47.2123 72.927 47.2123 71.811 47.2123Z" fill="black"/>
<path d="M67.243 76.7261C63.9045 76.7232 61.1689 73.9996 61.1407 70.6505C61.113 67.3444 63.8232 64.5449 67.1107 64.4839C67.9997 64.4673 68.6685 65.067 68.6945 65.9041C68.7198 66.7209 68.1258 67.3328 67.2444 67.398C65.657 67.5153 64.4803 68.4459 64.1505 69.8452C63.8266 71.219 64.3964 72.6017 65.5921 73.343C67.6015 74.589 70.2574 73.2185 70.4253 70.8536C70.4442 70.5866 70.4707 70.3086 70.5608 70.0602C70.7903 69.428 71.4932 69.0568 72.1503 69.1825C72.8718 69.3206 73.3287 69.8866 73.3433 70.6606C73.4051 73.9253 70.5854 76.729 67.243 76.7261Z" fill="black"/>
<path d="M20.7252 76.7236C18.2615 76.7203 16.2853 74.7821 16.1913 72.2848C16.101 69.8844 18.0268 67.7676 20.4465 67.6074C21.4233 67.5428 22.1148 68.073 22.1987 68.9511C22.2789 69.7897 21.6474 70.4356 20.6604 70.5245C19.766 70.605 19.1134 71.2843 19.1003 72.1484C19.0876 72.9918 19.7335 73.7203 20.567 73.8029C21.4716 73.8926 22.2073 73.3257 22.3714 72.4098C22.3922 72.2937 22.3999 72.1753 22.4132 72.058C22.5082 71.222 23.1439 70.6759 23.9615 70.7278C24.7389 70.7772 25.2902 71.3976 25.2958 72.2292C25.3114 74.5735 23.3679 76.6204 21.028 76.7232C20.9273 76.7275 20.8262 76.7236 20.7252 76.7236Z" fill="black"/>
<defs>
<linearGradient id="paint0_linear" x1="0" y1="0" x2="50.6401" y2="4.31882" gradientUnits="userSpaceOnUse">
<stop stop-color="#FA9C46"/>
<stop offset="1" stop-color="#FCD343"/>
</linearGradient>
</defs>
</svg>
