<svg width="89" height="79" viewBox="0 0 89 79" fill="none" xmlns="http://www.w3.org/2000/svg">
<circle cx="65.5" cy="55.5" r="23.5" fill="url(#paint0_linear)"/>
<path d="M34.5013 27.7408C37.8976 27.7408 41.294 27.7303 44.6902 27.7433C49.5322 27.7619 54.3741 27.7927 59.2159 27.8287C61.2009 27.8435 63.0883 28.2571 64.7842 29.3318C66.9359 30.6953 68.2116 32.6701 68.7216 35.1316C68.8864 35.927 68.9799 36.7517 68.9832 37.5634C69.0047 43.1003 69.0052 48.6374 68.9868 54.1744C68.98 56.2064 68.5007 58.1256 67.3407 59.8299C65.9611 61.8568 64.014 63.0355 61.6341 63.5539C60.4543 63.811 59.2578 63.8151 58.0601 63.8228C48.2138 63.8861 38.3675 63.9892 28.5211 63.9997C22.2168 64.0065 15.912 63.8921 9.60795 63.8028C5.5398 63.7453 2.16425 61.2758 0.729939 57.3778C0.25752 56.0939 0.0126133 54.7654 0.0100109 53.4019C-0.0001936 48.078 -0.00711071 42.754 0.0124079 37.4302C0.0198044 35.4069 0.502564 33.4959 1.65923 31.8006C3.03484 29.7844 4.96979 28.6027 7.34229 28.0837C8.62456 27.8032 9.9249 27.8211 11.224 27.81C15.5526 27.773 19.8811 27.7303 24.2097 27.7098C27.6402 27.6935 31.0707 27.7065 34.5013 27.7065C34.5013 27.7179 34.5013 27.7293 34.5013 27.7408ZM34.5434 31.0122C34.5434 31.0178 34.5434 31.0234 34.5434 31.029C33.0121 31.029 31.4808 31.0249 29.9496 31.0297C23.3024 31.0508 16.6552 31.0707 10.008 31.1035C9.40379 31.1065 8.79077 31.149 8.19782 31.2589C6.40971 31.5904 4.98218 32.4697 4.09618 34.1025C3.50877 35.1851 3.2918 36.3592 3.29064 37.5751C3.28585 42.8054 3.27982 48.0358 3.30105 53.266C3.30393 53.9665 3.39953 54.68 3.55561 55.3641C4.28287 58.5517 6.70016 60.5191 9.86101 60.5405C14.01 60.5686 18.1589 60.6077 22.3079 60.6203C29.7676 60.6429 37.2274 60.6672 44.6872 60.6558C49.5547 60.6484 54.4221 60.5859 59.2894 60.5294C59.8837 60.5225 60.4874 60.4482 61.0681 60.3208C62.7043 59.9617 64.0083 59.1089 64.8477 57.6291C65.4694 56.5329 65.7038 55.3361 65.7055 54.094C65.7133 48.6252 65.7141 43.1564 65.7035 37.6877C65.7024 37.1202 65.6523 36.5449 65.5495 35.987C65.2244 34.2221 64.3473 32.8165 62.7389 31.9269C61.682 31.3424 60.5289 31.119 59.3351 31.101C56.7605 31.0622 54.1857 31.0217 51.6109 31.016C45.9217 31.0036 40.2325 31.0122 34.5434 31.0122Z" fill="black"/>
<path d="M27.1024 15.2511C27.1024 13.7691 27.0927 12.2869 27.1081 10.805C27.1129 10.3391 27.1484 9.86716 27.2332 9.40966C27.4118 8.44732 28.0986 7.855 28.859 7.33339C29.501 6.89293 30.2201 6.67199 30.9934 6.61C31.9002 6.53731 32.8061 6.5204 33.7011 6.70861C35.4538 7.07705 36.6031 8.30145 36.8551 10.0707C36.915 10.491 36.9551 10.9179 36.9562 11.342C36.9637 14.2635 36.9627 17.185 36.9542 20.1065C36.9524 20.7552 36.8955 21.4072 36.6342 22.0094C36.1181 23.1993 35.2053 23.9884 33.9671 24.332C32.7386 24.6728 31.4727 24.6663 30.2349 24.356C28.4883 23.9181 27.2989 22.4743 27.1601 20.6917C27.1278 20.2762 27.1116 19.8585 27.1098 19.4417C27.1037 18.0448 27.1074 16.648 27.1074 15.2511L27.1024 15.2511ZM30.3927 15.5591H30.396C30.396 16.9641 30.3866 18.3692 30.3996 19.7741C30.4072 20.5858 30.7951 21.1139 31.4601 21.2274C31.7601 21.2786 32.0754 21.2929 32.3783 21.2646C33.1347 21.1941 33.5305 20.8117 33.6377 20.0551C33.6827 19.7371 33.6762 19.4103 33.6764 19.0876C33.6785 16.5245 33.684 13.9614 33.6725 11.3984C33.6677 10.3296 33.1498 9.83736 32.0874 9.83443C30.8754 9.83109 30.3956 10.3069 30.3932 11.523C30.3907 12.8683 30.3927 14.2136 30.3927 15.5591Z" fill="black"/>
<path d="M40.2486 6.57514C41.3594 6.57514 42.4338 6.57514 43.5339 6.57514C43.5339 6.68657 43.5339 6.78627 43.5339 6.88603C43.5339 11.0676 43.5338 15.2492 43.5342 19.4308C43.5342 19.567 43.5327 19.7036 43.5413 19.8394C43.6141 20.9854 44.7184 21.6169 45.7468 21.0965C46.4523 20.7395 46.8314 20.2052 46.8277 19.371C46.809 15.2151 46.8192 11.059 46.8192 6.90295C46.8192 6.80168 46.8192 6.70035 46.8192 6.58108C47.9132 6.58108 48.9936 6.58108 50.0893 6.58108C50.0893 12.5643 50.0893 18.546 50.0893 24.5411C49.0073 24.5411 47.9329 24.5411 46.8321 24.5411C46.8321 24.0306 46.8321 23.5165 46.8321 22.9289C46.6232 23.1326 46.4665 23.2906 46.3044 23.4428C45.3843 24.3072 44.2998 24.7084 43.0415 24.499C41.5365 24.2486 40.2508 22.7127 40.2498 21.2043C40.2467 16.401 40.2487 11.5977 40.2487 6.79438C40.2486 6.72783 40.2486 6.6612 40.2486 6.57514Z" fill="black"/>
<path d="M18.8942 24.5362C18.8942 24.4162 18.8942 24.3148 18.8942 24.2134C18.8942 21.1384 18.8953 18.0635 18.8909 14.9885C18.8907 14.8305 18.8651 14.6655 18.8151 14.5157C17.2316 9.77094 15.6436 5.02758 14.0565 0.283952C14.0298 0.204303 14.0063 0.123631 13.9741 0.0206596C14.7803 0.0206596 15.5659 0.0206596 16.3514 0.0206596C16.3856 0.0206596 16.4199 0.0197731 16.4541 0.020796C16.7169 0.02857 17.0488 -0.0568075 17.2232 0.0709177C17.3994 0.200007 17.4239 0.538925 17.5075 0.788375C18.4834 3.70021 19.458 6.61252 20.4333 9.52449C20.4569 9.59507 20.486 9.66381 20.5378 9.79992C20.5878 9.66292 20.6193 9.58218 20.6468 9.50008C21.6733 6.43474 22.7026 3.37036 23.7192 0.301819C23.7956 0.0712587 23.8989 0.010908 24.1316 0.0147268C25.021 0.0293201 25.9109 0.0206596 26.8005 0.0206596C26.8932 0.0206596 26.9859 0.0206596 27.1067 0.0206596C26.8336 0.835359 26.5688 1.62449 26.3045 2.41382C24.9512 6.45527 23.5973 10.4965 22.2481 14.5393C22.2008 14.681 22.1823 14.8384 22.1821 14.9886C22.1784 18.0635 22.1793 21.1385 22.1793 24.2134C22.1793 24.3148 22.1793 24.4163 22.1793 24.5362C21.0863 24.5362 20.0058 24.5362 18.8942 24.5362Z" fill="black"/>
<path d="M38.606 34.3869C38.606 36.5416 38.606 38.6778 38.606 40.8791C38.7177 40.7423 38.7933 40.6487 38.8702 40.5561C39.8623 39.3618 41.4853 38.8861 42.8923 39.3721C43.7911 39.6825 44.3186 40.3649 44.7163 41.1734C45.022 41.7948 45.1681 42.4615 45.1698 43.1491C45.1776 46.5477 45.1776 49.9463 45.1715 53.3448C45.1693 54.5475 44.588 55.4891 43.7644 56.311C42.486 57.5868 40.6308 57.5716 39.2264 56.2722C39.027 56.0878 38.8358 55.8947 38.6153 55.6809C38.6153 56.213 38.6153 56.7252 38.6153 57.2518C37.5118 57.2518 36.4373 57.2518 35.3417 57.2518C35.3417 49.6411 35.3417 42.0233 35.3417 34.3869C36.4138 34.3869 37.4944 34.3869 38.606 34.3869ZM38.606 48.194C38.606 49.7943 38.6136 51.3947 38.6002 52.9949C38.5971 53.3628 38.7533 53.5954 39.0637 53.7438C39.555 53.9788 40.0734 54.0593 40.6102 53.9512C41.3521 53.8018 41.8854 53.1815 41.8871 52.4321C41.8939 49.6146 41.8923 46.797 41.8843 43.9795C41.8828 43.4736 41.7816 42.9793 41.5283 42.5314C41.2545 42.0469 40.8529 41.7435 40.2755 41.7324C39.3773 41.7149 38.6107 42.487 38.6076 43.4188C38.6021 45.0104 38.606 46.6022 38.606 48.194Z" fill="black"/>
<path d="M56.675 49.0953C54.4678 49.0953 52.2987 49.0953 50.1278 49.0953C50.1176 49.1357 50.1062 49.1593 50.1064 49.1827C50.1207 50.272 50.1359 51.3613 50.1516 52.4505C50.1523 52.4929 50.1575 52.5355 50.1638 52.5776C50.3214 53.635 50.7835 54.022 51.8594 53.9926C51.9956 53.9888 52.1321 53.972 52.267 53.9515C52.899 53.8556 53.1868 53.5854 53.2832 52.9519C53.3406 52.5744 53.3661 52.1908 53.3841 51.8089C53.4006 51.461 53.3876 51.1119 53.3876 50.7439C54.4809 50.7439 55.5613 50.7439 56.6712 50.7439C56.6712 51.2055 56.6924 51.6716 56.666 52.1351C56.6308 52.7542 56.6063 53.3802 56.4929 53.9876C56.2301 55.3958 55.3268 56.2667 53.9915 56.6967C52.796 57.0816 51.5665 57.1309 50.345 56.8441C48.5406 56.4206 47.4858 55.2235 47.0407 53.4766C46.9074 52.9536 46.8388 52.4009 46.8346 51.8611C46.8138 49.213 46.8207 46.5645 46.826 43.9162C46.8288 42.5336 47.3547 41.3653 48.3413 40.4023C48.8784 39.878 49.5561 39.6232 50.2755 39.4679C51.4526 39.2138 52.6389 39.1648 53.8072 39.4753C55.39 39.8958 56.2938 40.9644 56.5651 42.5568C56.6447 43.0241 56.6661 43.5054 56.6696 43.9806C56.682 45.6155 56.6748 47.2505 56.675 48.8855C56.675 48.9434 56.675 49.0012 56.675 49.0953ZM53.3895 45.8048C53.3895 45.2581 53.3939 44.7239 53.3885 44.1896C53.3793 43.2839 52.7912 42.632 51.9204 42.5536C51.0598 42.4761 50.2744 43.0381 50.1497 43.9066C50.0693 44.4664 50.1145 45.0441 50.1055 45.6138C50.1045 45.6783 50.1171 45.7429 50.1231 45.8048C51.2167 45.8049 52.2911 45.8048 53.3895 45.8048Z" fill="black"/>
<path d="M22.1795 39.2879C23.2914 39.2879 24.3659 39.2879 25.4648 39.2879C25.4648 39.4 25.4648 39.4999 25.4648 39.5998C25.4648 43.8158 25.464 48.0318 25.4654 52.2477C25.4658 53.2074 26.2397 54.0136 27.1387 53.9941C27.6901 53.9822 28.1104 53.7444 28.3531 53.2425C28.5972 52.7376 28.7655 52.2292 28.7621 51.6402C28.7391 47.6288 28.75 43.6172 28.75 39.6056C28.75 39.5053 28.75 39.4048 28.75 39.2899C29.8448 39.2899 30.9193 39.2899 32.0146 39.2899C32.0146 45.2656 32.0146 51.2475 32.0146 57.2482C30.9425 57.2482 29.862 57.2482 28.7532 57.2482C28.7532 56.7361 28.7532 56.223 28.7532 55.6439C28.6054 55.8006 28.5052 55.9105 28.4012 56.0167C27.4549 56.9826 26.2993 57.398 24.96 57.2514C24.2181 57.1702 23.6596 56.7172 23.1619 56.1974C22.4767 55.4817 22.16 54.6505 22.1664 53.6349C22.1961 48.9593 22.1795 44.2833 22.1795 39.6074C22.1795 39.5066 22.1795 39.4059 22.1795 39.2879Z" fill="black"/>
<path d="M13.9773 37.6379C12.8591 37.6379 11.7847 37.6379 10.6957 37.6379C10.6957 36.5495 10.6957 35.4799 10.6957 34.3892C13.9591 34.3892 17.2291 34.3892 20.518 34.3892C20.518 35.4562 20.518 36.5319 20.518 37.6356C19.4386 37.6356 18.3579 37.6356 17.2519 37.6356C17.2519 44.1897 17.2519 50.716 17.2519 57.2546C16.1518 57.2546 15.0775 57.2546 13.9773 57.2546C13.9773 50.7275 13.9773 44.2011 13.9773 37.6379Z" fill="black"/>
<defs>
<linearGradient id="paint0_linear" x1="42" y1="32" x2="92.6401" y2="36.3188" gradientUnits="userSpaceOnUse">
<stop stop-color="#FA9C46"/>
<stop offset="1" stop-color="#FCD343"/>
</linearGradient>
</defs>
</svg>
