<svg width="101" height="76" viewBox="0 0 101 76" fill="none" xmlns="http://www.w3.org/2000/svg">
<circle cx="77.5" cy="23.5" r="23.5" fill="url(#paint0_linear)"/>
<path d="M61.8213 73.7186C61.281 76.0793 59.1623 76.2631 56.5576 75.7914C55.0283 75.5142 53.4171 75.6144 51.846 75.6661C46.1991 75.8517 41.1264 74.5689 37.0303 70.3165C36.3284 69.588 35.123 69.1077 34.0961 68.9893C31.8921 68.7349 30.1305 67.9746 29.0375 65.9491C28.2441 64.4791 27.2048 64.4228 25.7705 65.1472C22.4932 66.8022 21.4715 66.512 19.0939 63.659C18.0761 62.4377 17.1877 61.0252 15.9433 60.1095C15.1933 59.558 13.8551 59.6633 12.8186 59.7879C12.6033 59.8135 12.5451 61.2255 12.4281 62.0006C12.3043 62.8207 12.4925 63.9231 12.0314 64.4176C9.87932 66.7265 7.68432 69.0366 5.23671 71.008C3.6724 72.268 2.20134 71.0808 1.95946 69.065C1.62603 66.2826 1.04281 63.5201 0.397983 60.789C-0.661088 56.3055 0.283824 54.206 4.59697 52.8066C7.0395 52.0138 7.55886 50.3526 7.76966 48.1017C7.99515 45.695 8.20086 43.1681 9.0853 40.9668C10.7338 36.864 14.3224 35.3405 18.4824 36.7383C20.6492 37.4662 22.1558 37.292 23.5365 35.2808C24.712 33.5677 26.4532 33.1779 28.1 34.7509C28.6018 35.2301 28.7086 36.1282 28.9969 36.8339C28.2593 36.7622 27.5179 36.7195 26.7877 36.6028C26.5379 36.563 26.317 36.3365 26.092 36.201C24.0298 37.926 23.9281 39.0159 26.0898 40.0881C27.6219 40.8478 29.4591 41.2451 31.1789 41.3134C38.1747 41.59 38.9207 42.1875 39.604 49.4369C40.2036 48.536 40.5969 48.0044 40.9247 47.4342C41.2513 46.8656 41.3576 46.0529 41.8244 45.7007C45.7007 42.7748 48.649 38.3232 54.0495 37.8742C55.286 37.7712 56.5576 38.0967 57.8127 38.2248C57.6093 39.3807 57.4025 40.5365 57.2047 41.6935C57.1606 41.9513 57.147 42.2143 57.0504 43.1248C58.2095 42.4664 59.064 42.0771 59.8083 41.5342C60.7922 40.8171 61.632 39.8934 62.6368 39.2116C65.1765 37.4872 66.7595 38.2629 67.1607 42.1249C69.0579 39.6709 70.8788 37.8093 72.0944 35.6086C73.41 33.228 75.1908 31.9179 77.7458 31.503C80.2166 31.1018 81.513 30.1479 81.0411 27.1777C80.4697 23.5832 84.3076 18.698 87.9296 18.0065C88.4094 17.9149 89.6013 18.8966 89.5911 19.3621C89.5329 22.0603 91.2243 23.5422 92.8333 25.3258C93.9647 26.5802 95.1459 28.7087 94.8644 30.1639C94.0116 34.5756 95.8811 37.8685 98.1614 41.1517C98.8571 42.1528 99.9399 42.9427 100.415 44.0212C100.905 45.1327 101.127 46.5219 100.929 47.6982C100.858 48.1205 99.2403 48.3817 98.2993 48.5354C94.774 49.1125 92.2354 47.8143 91.2345 44.4526C89.9918 46.1884 88.8508 47.8086 87.6804 49.4073C86.9055 50.4658 85.9313 51.4077 85.3226 52.5511C84.0103 55.0148 84.8694 56.5684 87.556 56.8957C95.2967 57.8398 99.5935 65.8467 96.0631 72.8963C95.824 73.3738 94.7062 73.7283 94.1015 73.6077C93.4617 73.4802 92.8271 72.8047 92.3993 72.2145C90.3439 69.3831 88.1901 67.5734 84.4743 69.8271C82.8801 70.794 81.3514 69.6034 80.6523 67.9598C79.8362 66.0396 78.4448 65.6629 76.3425 65.9002C76.8382 66.7203 77.1999 67.3429 77.5847 67.9507C79.7045 71.3016 78.4759 74.3828 74.5437 74.5279C70.5097 74.6776 66.4481 74.0482 61.8213 73.7186ZM4.61675 68.0252C6.21327 66.6486 7.98159 65.3009 9.49955 63.7114C9.99405 63.1935 10.0234 62.0234 9.9364 61.1856C9.72617 59.1613 10.4869 57.5132 12.4174 57.4767C14.3072 57.4409 16.375 58.0424 18.0608 58.9416C19.2748 59.5893 20.0202 61.1617 20.9188 62.3643C21.9524 63.7467 22.9781 64.2913 24.7069 63.2572C25.7366 62.6409 27.8638 62.0427 28.2723 62.514C30.9579 65.6122 34.5787 66.7664 38.1798 68.0571C38.3369 68.1135 38.4488 68.3138 38.5686 68.4589C41.8543 72.4387 46.3461 73.3254 51.1407 73.4318C53.1758 73.4768 55.2137 73.59 57.2442 73.5132C58.0309 73.4836 59.2595 73.2298 59.5008 72.7085C60.5706 70.3984 62.1485 70.6346 64.1813 71.0842C67.1556 71.7416 70.2068 72.3346 73.2343 72.3829C76.7155 72.4387 77.0478 71.3984 75.2778 68.5124C74.607 67.4186 74.4759 65.989 74.0984 64.7124C75.544 64.3539 77.0727 63.5258 78.4121 63.7666C79.7865 64.013 81.3276 65.0488 82.155 66.2046C83.1174 67.5489 83.8227 68.0452 85.2785 67.2052C88.1381 65.5547 90.4857 66.3458 92.3925 68.8544C92.8751 69.489 93.2159 70.2328 93.6222 70.926C95.7206 63.0865 93.7528 60.1669 86.745 59.1061C83.2005 58.5694 81.5169 55.6152 82.9682 52.2107C83.5119 50.9354 84.2748 49.6281 85.2729 48.7004C87.7629 46.3853 89.2678 43.995 87.2237 40.6225C87.0491 40.3345 86.9688 39.7585 87.135 39.5303C87.8459 38.5549 88.5558 37.4895 89.5233 36.8561C89.7629 36.699 91.2277 37.8964 91.6674 38.7211C92.3179 39.9418 92.5191 41.3982 92.9768 42.7322C94.1597 46.1798 95.0051 46.6391 98.9628 45.9146C98.058 44.74 97.1702 43.678 96.3818 42.5466C93.7629 38.7882 91.4821 34.9569 92.692 29.9926C92.8836 29.2061 92.2495 28.0263 91.6765 27.2773C90.1353 25.2638 88.4201 23.3852 86.6784 21.3409C85.0039 22.6009 83.0061 23.9258 83.1722 26.8977C83.4554 31.9674 83.0163 32.3026 78.0673 33.8796C76.6358 34.3355 75.3196 35.5665 74.2679 36.732C72.386 38.8184 70.8516 41.2234 68.9686 43.3087C67.4891 44.9466 65.9417 44.5715 65.0019 42.6047C64.7498 42.0771 64.5893 41.5057 64.3192 40.7716C63.0284 41.8216 62.0513 42.9393 60.8238 43.5295C59.4115 44.2079 57.4347 45.1497 56.3383 44.6267C55.26 44.1123 54.9786 41.9052 54.2252 40.1581C53.5279 40.3971 52.2998 40.7869 51.0961 41.2422C50.3105 41.5393 49.4521 41.7994 48.8276 42.3207C48.2766 42.7811 47.8443 43.534 47.6459 44.2397C47.33 45.3609 47.6329 47.0392 46.9632 47.5679C46.3393 48.0602 44.7868 47.3602 43.5012 47.1633C43.2734 47.7062 43.1632 48.6031 42.6597 49.0391C41.5593 49.9906 40.259 50.7071 39.04 51.5198C38.4019 50.3162 37.3338 49.1563 37.2095 47.9014C36.8766 44.5476 36.2165 43.9028 32.7019 43.5733C30.052 43.3252 26.8804 43.377 24.9623 41.9257C22.6803 40.199 20.3361 39.5605 17.8116 38.8685C14.7384 38.0256 12.3219 38.8542 11.1797 41.829C10.3947 43.8732 10.1885 46.1924 10.0104 48.4119C9.70357 52.2295 8.68971 53.856 5.0293 54.9493C2.28103 55.77 1.86791 57.5763 2.4743 59.9746C3.1649 62.7012 3.9188 65.413 4.61675 68.0252Z" fill="black"/>
<path d="M42.6023 35.074C42.062 35.8588 41.9202 36.2355 41.6495 36.4307C40.0727 37.5701 38.4932 38.7112 36.8464 39.7424C36.5061 39.9553 35.8794 39.7043 35.3843 39.6673C35.4612 39.105 35.3312 38.2826 35.6505 38.0248C37.1617 36.8046 38.7503 35.6602 40.4192 34.6745C40.8329 34.4297 41.6506 34.8782 42.6023 35.074Z" fill="black"/>
<path d="M99.6678 58.3154C98.9337 58.9044 98.2578 59.5185 98.2114 59.4736C97.0744 58.3718 95.9893 57.2119 94.9692 55.9997C94.9252 55.9473 95.5818 55.2957 95.9125 54.9235C97.0964 55.9929 98.281 57.0622 99.6678 58.3154Z" fill="black"/>
<path d="M72.5067 31.7156C71.0983 32.5397 69.6945 33.3718 68.2562 34.1384C68.2195 34.1577 67.5645 33.1623 67.6001 33.1333C68.8344 32.1129 70.0907 31.1101 71.4233 30.2274C71.6154 30.0999 72.21 30.5882 72.6186 30.7914C72.5807 31.0999 72.5434 31.4077 72.5067 31.7156Z" fill="black"/>
<path d="M56.8116 33.934C55.6327 34.4161 54.481 35.0028 53.2597 35.3147C52.8952 35.408 52.3363 34.7319 51.8666 34.4081C52.8715 33.7855 53.8271 33.0411 54.9043 32.5961C55.3688 32.4043 56.0848 32.8305 56.6867 32.9757C56.728 33.2955 56.7698 33.6148 56.8116 33.934Z" fill="black"/>
<defs>
<linearGradient id="paint0_linear" x1="54" y1="0" x2="104.64" y2="4.31882" gradientUnits="userSpaceOnUse">
<stop stop-color="#FA9C46"/>
<stop offset="1" stop-color="#FCD343"/>
</linearGradient>
</defs>
</svg>
