<svg width="195" height="32" viewBox="0 0 195 32" fill="none" xmlns="http://www.w3.org/2000/svg">
    <path d="M47.452 21.288C46.12 21.288 44.92 21.012 43.852 20.46C42.784 19.896 41.944 19.116 41.332 18.12C40.732 17.112 40.432 15.972 40.432 14.7C40.432 13.428 40.732 12.294 41.332 11.298C41.944 10.29 42.784 9.51 43.852 8.958C44.92 8.394 46.12 8.112 47.452 8.112C48.676 8.112 49.768 8.328 50.728 8.76C51.688 9.192 52.48 9.816 53.104 10.632L50.422 13.026C49.642 12.042 48.724 11.55 47.668 11.55C46.78 11.55 46.066 11.838 45.526 12.414C44.986 12.978 44.716 13.74 44.716 14.7C44.716 15.66 44.986 16.428 45.526 17.004C46.066 17.568 46.78 17.85 47.668 17.85C48.724 17.85 49.642 17.358 50.422 16.374L53.104 18.768C52.48 19.584 51.688 20.208 50.728 20.64C49.768 21.072 48.676 21.288 47.452 21.288ZM65.0276 11.694H61.3376V21H57.1616V11.694H53.4716V8.4H65.0276V11.694ZM80.627 14.52L84.353 21H79.565L77.153 16.446H75.965V21H71.717V8.4H75.965V13.098H77.261L79.943 8.4H84.371L80.627 14.52ZM91.5396 21.288C90.1836 21.288 88.9656 21.006 87.8856 20.442C86.8056 19.878 85.9596 19.098 85.3476 18.102C84.7356 17.094 84.4296 15.96 84.4296 14.7C84.4296 13.44 84.7356 12.312 85.3476 11.316C85.9596 10.308 86.8056 9.522 87.8856 8.958C88.9656 8.394 90.1836 8.112 91.5396 8.112C92.8956 8.112 94.1136 8.394 95.1936 8.958C96.2736 9.522 97.1196 10.308 97.7316 11.316C98.3436 12.312 98.6496 13.44 98.6496 14.7C98.6496 15.96 98.3436 17.094 97.7316 18.102C97.1196 19.098 96.2736 19.878 95.1936 20.442C94.1136 21.006 92.8956 21.288 91.5396 21.288ZM91.5396 17.85C92.0676 17.85 92.5416 17.724 92.9616 17.472C93.3936 17.208 93.7356 16.842 93.9876 16.374C94.2396 15.894 94.3656 15.336 94.3656 14.7C94.3656 14.064 94.2396 13.512 93.9876 13.044C93.7356 12.564 93.3936 12.198 92.9616 11.946C92.5416 11.682 92.0676 11.55 91.5396 11.55C91.0116 11.55 90.5316 11.682 90.0996 11.946C89.6796 12.198 89.3436 12.564 89.0916 13.044C88.8396 13.512 88.7136 14.064 88.7136 14.7C88.7136 15.336 88.8396 15.894 89.0916 16.374C89.3436 16.842 89.6796 17.208 90.0996 17.472C90.5316 17.724 91.0116 17.85 91.5396 17.85ZM112.599 8.4V21H108.351V16.356H104.427V21H100.179V8.4H104.427V12.864H108.351V8.4H112.599ZM125.567 11.694H121.877V21H117.701V11.694H114.011V8.4H125.567V11.694ZM126.968 8.4H131.144V14.952L135.482 8.4H139.478V21H135.302V14.466L130.982 21H126.968V8.4ZM154.136 8.4V21H149.888V16.356H145.964V21H141.716V8.4H145.964V12.864H149.888V8.4H154.136ZM166.852 17.796V21H156.376V8.4H166.618V11.604H160.552V13.08H165.88V16.14H160.552V17.796H166.852ZM180.995 8.4V21H176.747V16.356H172.823V21H168.575V8.4H172.823V12.864H176.747V8.4H180.995ZM193.963 11.694H190.273V21H186.097V11.694H182.407V8.4H193.963V11.694Z" fill="#404041"/>
    <path d="M24.738 0H19.4565V7.2563H24.738V12.5338H32.0001V7.2563V0H24.738Z" fill="#F7941E"/>
    <path d="M15.844 24.921C10.8286 24.921 6.7484 20.8438 6.7484 15.8322C6.7484 10.8206 10.8286 6.74338 15.844 6.74338V0C7.09341 0 0 7.08856 0 15.8322C0 24.5763 7.09341 31.6644 15.844 31.6644C24.5945 31.6644 31.6879 24.5763 31.6879 15.8322H24.9396C24.9396 20.8438 20.8593 24.921 15.844 24.921Z" fill="#404041"/>
</svg>
