<svg width="55" height="56" viewBox="0 0 55 56" fill="none" xmlns="http://www.w3.org/2000/svg">
<path d="M43.6698 0.144043L54.7978 11.744V55.856H13.2278V56H54.9398V11.89L43.6698 0.144043Z" fill="#909090"/>
<path d="M43.5319 0H13.0859V55.856H54.7979V11.746L43.5299 0" fill="#F4F4F4"/>
<path d="M12.78 3.00006H0V16.6541H40.2V3.00006H12.78Z" fill="#7A7B7C"/>
<path d="M40.414 16.4221H0.26001V2.75806H40.414V16.4221Z" fill="#DD2025"/>
<path d="M13.574 5.06812H10.96V14.6681H13.016V11.4301L13.47 11.4561C13.9111 11.4485 14.3481 11.3695 14.764 11.2221C15.1286 11.0967 15.464 10.8987 15.75 10.6401C16.041 10.3938 16.2704 10.0828 16.42 9.73212C16.6206 9.14911 16.6922 8.52951 16.63 7.91612C16.6175 7.47793 16.5407 7.04396 16.402 6.62812C16.2757 6.32793 16.0883 6.05732 15.8518 5.8335C15.6152 5.60969 15.3347 5.43757 15.028 5.32812C14.7628 5.23211 14.4888 5.16244 14.21 5.12012C13.9988 5.08754 13.7856 5.07016 13.572 5.06812H13.574ZM13.194 9.65612H13.016V6.69612H13.402C13.5723 6.68383 13.7433 6.70998 13.9022 6.77264C14.0611 6.8353 14.2038 6.93286 14.32 7.05812C14.5606 7.38014 14.6892 7.77212 14.686 8.17412C14.686 8.66612 14.686 9.11211 14.242 9.42612C13.9221 9.60204 13.558 9.68125 13.194 9.65412" fill="#464648"/>
<path d="M20.5362 5.04188C20.3142 5.04188 20.0982 5.05788 19.9462 5.06388L19.4702 5.07588H17.9102V14.6759H19.7462C20.4478 14.6951 21.1464 14.5762 21.8022 14.3259C22.33 14.1165 22.7974 13.779 23.1622 13.3439C23.5169 12.9048 23.7715 12.3936 23.9082 11.8459C24.0653 11.2256 24.1419 10.5877 24.1362 9.94788C24.175 9.1922 24.1165 8.43466 23.9622 7.69388C23.8157 7.14861 23.5415 6.64607 23.1622 6.22788C22.8645 5.89021 22.5002 5.61782 22.0922 5.42788C21.7417 5.26571 21.3731 5.14619 20.9942 5.07188C20.8435 5.04699 20.6909 5.03561 20.5382 5.03788L20.5362 5.04188ZM20.1742 12.9119H19.9742V6.78388H20.0002C20.4125 6.73644 20.8297 6.81084 21.2002 6.99788C21.4715 7.21453 21.6926 7.48748 21.8482 7.79788C22.0161 8.12455 22.1129 8.48309 22.1322 8.84988C22.1502 9.28988 22.1322 9.64988 22.1322 9.94788C22.1403 10.2912 22.1182 10.6345 22.0662 10.9739C22.0045 11.3223 21.8906 11.6595 21.7282 11.9739C21.5443 12.2662 21.296 12.5125 21.0022 12.6939C20.7554 12.8535 20.4632 12.9279 20.1702 12.9059" fill="#464648"/>
<path d="M30.3297 5.07605H25.4697V14.676H27.5257V10.868H30.1257V9.08405H27.5257V6.86005H30.3257V5.07605" fill="#464648"/>
<path d="M39.0321 36.51C39.0321 36.51 45.4081 35.354 45.4081 37.532C45.4081 39.71 41.4581 38.824 39.0321 36.51ZM34.3181 36.676C33.3051 36.8999 32.3178 37.2276 31.3721 37.654L32.1721 35.854C32.9721 34.054 33.8021 31.6 33.8021 31.6C34.7567 33.2067 35.8674 34.7153 37.1181 36.104C36.1749 36.2447 35.2402 36.437 34.3181 36.68V36.676ZM31.7941 23.676C31.7941 21.778 32.4081 21.26 32.8861 21.26C33.3641 21.26 33.9021 21.49 33.9201 23.138C33.7644 24.7951 33.4174 26.4287 32.8861 28.006C32.1583 26.6817 31.7817 25.1931 31.7921 23.682L31.7941 23.676ZM22.4961 44.708C20.5401 43.538 26.5981 39.936 27.6961 39.82C27.6901 39.822 24.5441 45.932 22.4961 44.708ZM47.2701 37.79C47.2501 37.59 47.0701 35.376 43.1301 35.47C41.4878 35.4436 39.8464 35.5593 38.2241 35.816C36.6526 34.2328 35.2993 32.4471 34.2001 30.506C34.8926 28.5049 35.3118 26.4194 35.4461 24.306C35.3881 21.906 34.8141 20.53 32.9741 20.55C31.1341 20.57 30.8661 22.18 31.1081 24.576C31.3451 26.1861 31.7923 27.7582 32.4381 29.252C32.4381 29.252 31.5881 31.898 30.4641 34.53C29.3401 37.162 28.5721 38.542 28.5721 38.542C26.6175 39.1783 24.7776 40.1236 23.1221 41.342C21.4741 42.876 20.8041 44.054 21.6721 45.232C22.4201 46.248 25.0381 46.478 27.3781 43.412C28.6214 41.8284 29.7573 40.1634 30.7781 38.428C30.7781 38.428 34.3461 37.45 35.4561 37.182C36.5661 36.914 37.9081 36.702 37.9081 36.702C37.9081 36.702 41.1661 39.98 44.3081 39.864C47.4501 39.748 47.2981 37.986 47.2781 37.794" fill="#DD2025"/>
<path d="M43.3779 0.153992V11.9H54.6439L43.3779 0.153992Z" fill="#909090"/>
<path d="M43.5315 0V11.746H54.7975L43.5315 0Z" fill="#F4F4F4"/>
<path d="M13.4197 4.914H10.8057V14.514H12.8697V11.278L13.3257 11.304C13.7668 11.2964 14.2038 11.2174 14.6197 11.07C14.9842 10.9445 15.3197 10.7466 15.6057 10.488C15.8945 10.241 16.1218 9.93011 16.2697 9.58C16.4703 8.997 16.5419 8.3774 16.4797 7.764C16.4672 7.32582 16.3904 6.89185 16.2517 6.476C16.1254 6.17582 15.938 5.9052 15.7015 5.68139C15.4649 5.45757 15.1844 5.28546 14.8777 5.176C14.6113 5.07906 14.3359 5.00872 14.0557 4.966C13.8445 4.93342 13.6313 4.91605 13.4177 4.914H13.4197ZM13.0397 9.502H12.8617V6.542H13.2497C13.42 6.52972 13.591 6.55587 13.7499 6.61853C13.9088 6.68119 14.0515 6.77875 14.1677 6.904C14.4083 7.22603 14.5369 7.61801 14.5337 8.02C14.5337 8.512 14.5337 8.958 14.0897 9.272C13.7698 9.44793 13.4057 9.52714 13.0417 9.5" fill="white"/>
<path d="M20.3817 4.88807C20.1597 4.88807 19.9437 4.90407 19.7917 4.91007L19.3217 4.92207H17.7617V14.5221H19.5977C20.2994 14.5413 20.998 14.4224 21.6537 14.1721C22.1815 13.9627 22.6489 13.6252 23.0137 13.1901C23.3684 12.751 23.623 12.2397 23.7597 11.6921C23.9168 11.0718 23.9935 10.4339 23.9877 9.79407C24.0265 9.03839 23.968 8.28085 23.8137 7.54007C23.6673 6.9948 23.393 6.49226 23.0137 6.07407C22.7161 5.7364 22.3518 5.46401 21.9437 5.27407C21.5933 5.11191 21.2246 4.99238 20.8457 4.91807C20.695 4.89318 20.5424 4.8818 20.3897 4.88407L20.3817 4.88807ZM20.0257 12.7581H19.8257V6.63007H19.8517C20.264 6.58263 20.6812 6.65703 21.0517 6.84407C21.323 7.06073 21.5441 7.33367 21.6997 7.64407C21.8676 7.97074 21.9644 8.32928 21.9837 8.69607C22.0017 9.13607 21.9837 9.49607 21.9837 9.79407C21.9919 10.1373 21.9698 10.4807 21.9177 10.8201C21.8561 11.1685 21.7421 11.5057 21.5797 11.8201C21.3959 12.1124 21.1475 12.3587 20.8537 12.5401C20.607 12.6997 20.3148 12.7741 20.0217 12.7521" fill="white"/>
<path d="M30.1757 4.92212H25.3157V14.5221H27.3717V10.7141H29.9717V8.93012H27.3717V6.70612H30.1717V4.92212" fill="white"/>
</svg>
