<svg width="189" height="183" viewBox="0 0 189 183" fill="none" xmlns="http://www.w3.org/2000/svg">
<path d="M111.861 183C98.9743 183 88.9218 182.881 81.703 182.643C74.4843 182.404 68.936 181.898 65.0581 181.124C61.1803 180.349 58.7343 179.694 57.7201 179.158C56.7059 178.622 55.0652 177.579 52.7982 176.03C51.0084 174.601 47.757 173.439 43.0439 172.545C38.3309 171.652 30.4857 170.848 19.5084 170.133C17.5993 170.014 16.1079 169.299 15.034 167.988C14.7954 167.631 14.3181 166.856 13.6022 165.665C12.8863 164.474 11.8721 162.478 10.5596 159.678C9.24707 156.878 8.02406 153.811 6.89054 150.475C5.75701 147.139 4.77264 142.969 3.93741 137.965C3.10218 132.961 2.68457 127.897 2.68457 122.774C2.68457 105.38 5.60787 92.0361 11.4545 82.7432C12.6476 80.9561 14.3181 80.0625 16.4658 80.0625C26.4885 80.0625 37.4956 73.9863 49.4871 61.834C61.4786 49.6816 71.8294 33.1807 80.5397 12.3311C80.7783 11.9736 81.1661 11.1396 81.703 9.8291C82.24 8.51855 82.5681 7.68457 82.6874 7.32715C82.8067 6.96973 83.1348 6.28467 83.6718 5.27197C84.2087 4.25928 84.686 3.604 85.1036 3.30615C85.5212 3.0083 86.088 2.56152 86.8039 1.96582C87.5198 1.37012 88.2655 0.98291 89.0411 0.804199C89.8167 0.625488 90.7712 0.446777 91.9047 0.268066C93.0383 0.0893555 94.3209 0 95.7527 0C97.9005 0 100.108 0.476562 102.375 1.42969C104.642 2.38281 106.73 3.66357 108.639 5.27197C110.548 6.88037 112.099 8.69727 113.293 10.7227C115.56 14.416 116.872 19.7178 117.23 26.6279C117.588 33.5381 117.379 39.9717 116.604 45.9287C115.828 51.8857 114.784 57.6045 113.471 63.085C134.71 62.9658 149.148 62.9062 156.784 62.9062C163.824 62.9062 169.521 64.8125 173.876 68.625C178.231 72.4375 180.469 77.4414 180.588 83.6367C180.707 88.8789 180.17 92.8701 178.977 95.6104C181.006 97.6357 182.706 99.7505 184.078 101.955C185.45 104.159 186.196 106.631 186.315 109.371C186.435 114.971 183.69 120.689 178.082 126.527C178.202 126.766 178.44 127.332 178.798 128.225C179.156 129.119 179.425 129.863 179.604 130.459C179.783 131.055 179.932 131.799 180.051 132.693C180.17 133.586 180.23 134.45 180.23 135.284C179.991 141.837 176.173 147.675 168.775 152.798C169.372 156.729 169.312 160.244 168.596 163.342C165.733 176.447 146.821 183 111.861 183ZM22.551 158.517C42.1192 160.065 54.5283 162.806 59.7783 166.737C61.6874 168.167 63.3579 169.12 64.7897 169.597C66.2215 170.073 70.5169 170.52 77.676 170.937C84.8351 171.354 96.23 171.562 111.861 171.562C116.753 171.562 121.197 171.443 125.194 171.205C129.192 170.967 133.815 170.55 139.065 169.954C144.315 169.358 148.551 168.286 151.773 166.737C154.994 165.188 156.903 163.223 157.5 160.84C157.977 158.338 156.844 155.657 154.099 152.798C153.503 151.368 153.503 149.909 154.099 148.419C154.696 146.93 155.65 145.888 156.963 145.292H157.142C157.739 145.054 158.454 144.756 159.29 144.398C160.125 144.041 161.348 143.386 162.959 142.433C164.569 141.479 165.912 140.318 166.986 138.948C168.06 137.578 168.656 136.237 168.775 134.927C168.775 134.45 168.746 134.003 168.686 133.586C168.626 133.169 168.567 132.782 168.507 132.425C168.447 132.067 168.328 131.71 168.149 131.353L167.702 130.459L167.254 129.744L166.807 129.119L166.449 128.672L166.18 128.314L166.091 128.136C165.614 127.54 165.315 126.885 165.196 126.17C165.077 125.455 165.077 124.74 165.196 124.025C165.315 123.311 165.584 122.625 166.001 121.97C166.419 121.315 166.926 120.749 167.523 120.272C168.239 119.915 169.014 119.409 169.849 118.753C170.685 118.098 171.729 116.877 172.981 115.09C174.234 113.303 174.861 111.516 174.861 109.729C174.741 106.75 172.474 103.95 168.06 101.329C167.344 100.853 166.747 100.287 166.27 99.6313C165.793 98.9761 165.435 98.2314 165.196 97.3975C165.077 96.9209 165.047 96.4146 165.106 95.8784C165.166 95.3423 165.285 94.8062 165.464 94.27C165.643 93.7339 165.912 93.2275 166.27 92.751C166.389 92.6318 166.508 92.4829 166.628 92.3042C166.747 92.1255 166.986 91.6787 167.344 90.9639C167.702 90.249 168 89.564 168.239 88.9087C168.477 88.2534 168.686 87.4492 168.865 86.4961C169.044 85.543 169.133 84.6494 169.133 83.8154C169.014 81.6709 168.447 79.8838 167.433 78.4541C166.419 77.0244 165.106 76.0415 163.496 75.5054C161.885 74.9692 160.602 74.6416 159.648 74.5225C158.693 74.4033 157.739 74.3438 156.784 74.3438H114.903L105.239 74.5225C104.761 74.5225 104.284 74.4629 103.807 74.3438C103.329 74.2246 102.882 74.0459 102.464 73.8076C102.047 73.5693 101.659 73.3013 101.301 73.0034C100.943 72.7056 100.645 72.3184 100.406 71.8418C99.3323 70.293 99.1533 68.5059 99.8692 66.4805C101.778 61 103.3 54.9834 104.433 48.4307C105.567 41.8779 106.104 35.623 106.044 29.666C105.984 23.709 105.119 19.3604 103.449 16.6201C103.329 16.3818 103.091 15.9648 102.733 15.3691C102.375 14.7734 102.136 14.3564 102.017 14.1182C101.898 13.8799 101.629 13.5522 101.212 13.1353C100.794 12.7183 100.376 12.4204 99.9587 12.2417C99.5411 12.063 98.9743 11.8843 98.2584 11.7056C97.5425 11.5269 96.7073 11.4375 95.7527 11.4375C95.3948 11.4375 95.0368 11.5566 94.6789 11.7949C94.3209 12.0332 93.784 12.5693 93.0681 13.4033C92.3522 14.2373 91.6959 15.3691 91.0993 16.7988C81.9118 38.959 70.8152 56.6216 57.8096 69.7866C44.8039 82.9517 32.2158 90.1299 20.0454 91.3213C19.0908 93.4658 18.2556 95.6104 17.5397 97.7549C16.8238 99.8994 16.078 103.295 15.3025 107.941C14.5269 112.588 14.1391 117.532 14.1391 122.774C14.1391 128.136 14.676 133.467 15.7499 138.769C16.8238 144.071 17.9275 148.241 19.061 151.279C20.1945 154.317 21.3579 156.729 22.551 158.517Z" fill="white"/>
</svg>
