<svg width="41" height="41" viewBox="0 0 41 41" fill="none" xmlns="http://www.w3.org/2000/svg">
<circle cx="20.5" cy="20.5" r="20.5" fill="#5A5A5A"/>
<path d="M21.2062 26.7604C20.8399 27.0955 20.4751 27.4288 20.1107 27.7628C19.7141 28.1262 19.3198 28.4923 18.9211 28.8534C18.4487 29.2811 17.5256 29.3217 17.0843 28.6588C16.8843 28.3582 16.7576 28.0284 16.6534 27.6869C16.1909 26.1726 15.728 24.6584 15.2692 23.143C15.2351 23.0305 15.1819 22.9713 15.0672 22.9329C13.8191 22.515 12.573 22.0906 11.3267 21.667C10.971 21.5462 10.6641 21.3483 10.4049 21.0737C9.80827 20.4414 9.87964 19.4998 10.5618 18.9616C10.8916 18.7014 11.2793 18.5603 11.6579 18.3997C16.5021 16.3449 21.3465 14.2906 26.1912 12.237C26.9979 11.8951 27.8055 11.5555 28.6138 11.2174C28.98 11.0642 29.3564 10.9542 29.7592 11.0189C30.5032 11.1382 31.0153 11.7346 30.9997 12.5207C30.9921 12.8974 30.9108 13.275 30.8394 13.6477C30.447 15.696 30.0476 17.7429 29.6501 19.7902C29.2884 21.6528 28.9257 23.5151 28.5642 25.3778C28.3605 26.4272 28.1609 27.4775 27.9548 28.5266C27.8039 29.2952 27.172 29.8785 26.3975 29.9798C25.9938 30.0326 25.605 29.9822 25.2307 29.8234C25.1612 29.7939 25.0929 29.7554 25.033 29.7092C23.7897 28.7512 22.5477 27.7915 21.3053 26.8323C21.2753 26.8091 21.2438 26.7877 21.2062 26.7604ZM21.1154 24.6394C21.1629 24.6747 21.1978 24.6998 21.2319 24.7261C22.4061 25.6325 23.5801 26.5389 24.7542 27.4454C25.1152 27.7241 25.4707 28.0103 25.839 28.279C26.1033 28.4718 26.3326 28.4239 26.3944 28.1019C26.8551 25.6991 27.3207 23.2972 27.787 20.8955C28.2782 18.3658 28.7723 15.8366 29.2643 13.307C29.3044 13.1009 29.3384 12.8936 29.3817 12.6507C23.5084 15.1406 17.671 17.6154 11.8028 20.1032C11.8744 20.1316 11.9122 20.1486 11.9513 20.1619C13.4474 20.6693 14.9438 21.1755 16.439 21.6857C16.522 21.714 16.5794 21.6989 16.6494 21.6552C19.8631 19.6485 23.0776 17.6432 26.2936 15.6403C26.3855 15.583 26.4913 15.5351 26.5964 15.5169C26.6693 15.5043 26.7815 15.5254 26.8236 15.5759C26.8849 15.6493 26.9013 15.7643 26.8245 15.8565C26.76 15.9338 26.6953 16.012 26.6225 16.081C26.1827 16.497 25.7407 16.9107 25.2993 17.3249C23.1763 19.317 21.0527 21.3086 18.9324 23.3037C18.8755 23.3571 18.8316 23.4449 18.8191 23.5227C18.6455 24.6024 18.4783 25.6832 18.31 26.7638C18.2854 26.9223 18.263 27.0811 18.2333 27.2828C19.2127 26.3845 20.1598 25.5158 21.1154 24.6394Z" fill="#BEBEBE"/>
</svg>
