<svg width="41" height="41" viewBox="0 0 41 41" fill="none" xmlns="http://www.w3.org/2000/svg">
<circle cx="20.5" cy="20.5" r="20.5" fill="#5A5A5A"/>
<path d="M11 31C11.0881 30.6484 11.1761 30.2969 11.3082 29.9453C11.6604 28.583 12.0567 27.2646 12.4089 25.9023C12.4089 25.8583 12.4089 25.8583 12.4089 25.8144C11.8806 24.8476 11.4843 23.8808 11.3082 22.7821C11.2201 22.2987 11.1761 21.8153 11.1321 21.3319C11.0881 20.8046 11.1321 20.2772 11.1761 19.7499C11.3522 18.2118 11.8806 16.8055 12.7171 15.4871C13.6857 14.0369 14.9185 12.8943 16.4594 12.1033C17.296 11.6638 18.2205 11.3562 19.1451 11.1804C19.6294 11.0926 20.1137 11.0486 20.554 11.0047C22.183 10.9607 23.724 11.2244 25.1769 11.9275C26.1455 12.367 26.982 12.9822 27.7745 13.6854C28.6111 14.4764 29.3595 15.4432 29.8879 16.4539C30.3281 17.2889 30.6363 18.1239 30.8124 19.0467C30.9445 19.7499 31.0326 20.453 30.9885 21.1561C30.9445 22.5185 30.6363 23.7929 30.064 25.0234C29.6237 25.9902 29.0073 26.8691 28.2588 27.6162C27.4663 28.4511 26.5858 29.1103 25.5731 29.6377C24.6926 30.1211 23.724 30.4287 22.7554 30.6045C22.2711 30.6924 21.7868 30.7363 21.3025 30.7803C20.7741 30.7803 20.2458 30.7803 19.7615 30.6924C18.7048 30.5605 17.6482 30.2529 16.6796 29.7695C16.5475 29.7256 16.4154 29.6377 16.2833 29.5498C16.2393 29.5498 16.2393 29.5498 16.1953 29.5498C15.1826 29.8135 14.17 30.0771 13.1574 30.3408C12.4529 30.6045 11.7485 30.7803 11 31ZM13.3775 28.6269C13.4215 28.6269 13.4215 28.6269 13.4655 28.6269C14.4782 28.3633 15.4468 28.0996 16.4594 27.8359C16.5035 27.8359 16.5475 27.8359 16.5475 27.8359C16.8557 28.0117 17.1639 28.1875 17.4721 28.3633C18.3526 28.7588 19.2332 29.0224 20.2018 29.1103C20.7301 29.1543 21.2584 29.1543 21.8308 29.1103C22.4032 29.0664 23.0195 28.9345 23.5479 28.7588C25.1329 28.2314 26.4537 27.3525 27.4663 26.0341C28.523 24.7157 29.1394 23.1776 29.2715 21.4638C29.3155 20.8485 29.2715 20.2772 29.1834 19.662C29.0513 18.871 28.8312 18.1239 28.479 17.4207C28.0387 16.4979 27.4223 15.7069 26.6738 15.0037C25.9694 14.3006 25.1769 13.7732 24.2523 13.3777C23.1516 12.8943 21.9629 12.6746 20.7301 12.6746C20.2898 12.6746 19.8936 12.7185 19.4533 12.8064C18.6608 12.9383 17.8683 13.202 17.1639 13.5975C16.3714 14.0369 15.6229 14.5643 15.0065 15.2235C14.3901 15.8387 13.9058 16.5418 13.5096 17.3329C13.0253 18.3436 12.7171 19.4423 12.673 20.5409C12.629 21.0682 12.6731 21.5956 12.7611 22.1669C12.8492 22.87 13.0693 23.5732 13.3335 24.2323C13.6417 24.6718 13.9058 25.1113 14.214 25.5507C14.214 25.5947 14.258 25.5947 14.214 25.6386C13.9939 26.4736 13.7297 27.3525 13.5096 28.1875C13.4655 28.3193 13.4215 28.4951 13.3775 28.6269Z" fill="#BEBEBE"/>
<path d="M23.6799 25.6827C23.2397 25.6827 22.8434 25.5948 22.4472 25.463C21.6547 25.1993 20.8622 24.8917 20.1578 24.4083C19.6735 24.1007 19.1892 23.7052 18.7489 23.3097C18.0885 22.6944 17.5601 22.0352 17.0318 21.3321C16.7676 20.9366 16.5035 20.585 16.3274 20.1456C16.1513 19.794 16.0632 19.4424 16.0192 19.0469C15.9311 18.2559 16.1072 17.5088 16.6356 16.8936C16.7236 16.7617 16.8557 16.6299 16.9878 16.542C17.1639 16.4102 17.34 16.3662 17.5601 16.3662C17.7363 16.3662 17.9124 16.3662 18.1325 16.3662C18.2646 16.3662 18.3526 16.4102 18.4407 16.498C18.5287 16.5859 18.5728 16.6738 18.6168 16.8057C18.881 17.377 19.1011 17.9922 19.3653 18.6074C19.3653 18.6514 19.4093 18.6953 19.4093 18.7393C19.4533 18.8711 19.4533 18.959 19.3653 19.0909C19.1892 19.3985 19.013 19.6621 18.7489 19.9258C18.7049 19.9698 18.6608 20.0137 18.6608 20.0577C18.5728 20.1456 18.5728 20.2774 18.6168 20.4092C18.7049 20.5411 18.7929 20.6729 18.881 20.8047C19.1451 21.2003 19.4093 21.5518 19.7175 21.8594C20.1137 22.255 20.51 22.5626 20.9943 22.8262C21.3465 23.046 21.6987 23.2218 22.0509 23.3975C22.0509 23.3975 22.095 23.3975 22.095 23.4415C22.2711 23.5294 22.4032 23.4854 22.5352 23.3536C22.7994 23.046 23.1076 22.6944 23.3277 22.3428C23.4158 22.211 23.5479 22.1671 23.724 22.211C23.9001 22.255 24.0762 22.3428 24.2523 22.4307C24.7806 22.6505 25.2649 22.9141 25.7933 23.1778C25.8373 23.1778 25.8373 23.2218 25.8813 23.2218C26.0134 23.3097 26.1015 23.3975 26.1015 23.5733C26.1015 23.8809 26.0574 24.1886 25.9694 24.4522C25.8813 24.7159 25.7052 24.9356 25.4851 25.1114C25.1329 25.3751 24.7806 25.5948 24.3404 25.6827C24.0322 25.6827 23.812 25.6827 23.6799 25.6827Z" fill="#BEBEBE"/>
</svg>
