<svg width="20" height="20" viewBox="0 0 20 20" fill="none" xmlns="http://www.w3.org/2000/svg">
<path d="M0 20C0.0880553 19.6484 0.176111 19.2969 0.308194 18.9453C0.660415 17.583 1.05666 16.2646 1.40888 14.9023C1.40888 14.8583 1.40888 14.8583 1.40888 14.8144C0.880553 13.8476 0.484304 12.8808 0.308194 11.7821C0.220139 11.2987 0.17611 10.8153 0.132083 10.3319C0.0880549 9.80457 0.132083 9.27722 0.17611 8.74988C0.352221 7.21177 0.880553 5.80551 1.71708 4.48713C2.68569 3.03692 3.91846 1.89433 5.45943 1.10331C6.29595 0.663849 7.22053 0.356228 8.14511 0.180445C8.62942 0.0925529 9.11372 0.0486073 9.554 0.0046615C11.183 -0.0392843 12.724 0.224391 14.1769 0.927523C15.1455 1.36698 15.982 1.98222 16.7745 2.68536C17.6111 3.47638 18.3595 4.44319 18.8879 5.45394C19.3281 6.28891 19.6363 7.12388 19.8124 8.04674C19.9445 8.74988 20.0326 9.45301 19.9885 10.1561C19.9445 11.5185 19.6363 12.7929 19.064 14.0234C18.6237 14.9902 18.0073 15.8691 17.2588 16.6162C16.4663 17.4511 15.5858 18.1103 14.5731 18.6377C13.6926 19.1211 12.724 19.4287 11.7554 19.6045C11.2711 19.6924 10.7868 19.7363 10.3025 19.7803C9.77414 19.7803 9.2458 19.7803 8.7615 19.6924C7.70484 19.5605 6.64817 19.2529 5.67957 18.7695C5.54748 18.7256 5.4154 18.6377 5.28332 18.5498C5.23929 18.5498 5.23929 18.5498 5.19526 18.5498C4.18262 18.8135 3.16999 19.0771 2.15735 19.3408C1.45291 19.6045 0.74847 19.7803 0 20ZM2.37749 17.6269C2.42152 17.6269 2.42152 17.6269 2.46555 17.6269C3.47818 17.3633 4.44679 17.0996 5.45943 16.8359C5.50346 16.8359 5.54748 16.8359 5.54748 16.8359C5.85567 17.0117 6.16387 17.1875 6.47206 17.3633C7.35262 17.7588 8.23317 18.0224 9.20178 18.1103C9.73011 18.1543 10.2584 18.1543 10.8308 18.1103C11.4032 18.0664 12.0195 17.9345 12.5479 17.7588C14.1329 17.2314 15.4537 16.3525 16.4663 15.0341C17.523 13.7157 18.1394 12.1776 18.2715 10.4638C18.3155 9.84852 18.2715 9.27722 18.1834 8.66198C18.0513 7.87096 17.8312 7.12388 17.479 6.42075C17.0387 5.49789 16.4223 4.70686 15.6738 4.00373C14.9694 3.3006 14.1769 2.77325 13.2523 2.37773C12.1516 1.89433 10.9629 1.6746 9.73011 1.6746C9.28983 1.6746 8.89358 1.71855 8.45331 1.80644C7.66081 1.93828 6.86831 2.20195 6.16387 2.59746C5.37137 3.03692 4.6229 3.56427 4.00652 4.22346C3.39013 4.8387 2.90582 5.54183 2.50958 6.33286C2.02527 7.34361 1.71708 8.44225 1.67305 9.5409C1.62902 10.0682 1.67305 10.5956 1.76111 11.1669C1.84916 11.87 2.0693 12.5732 2.33346 13.2323C2.64166 13.6718 2.90582 14.1113 3.21402 14.5507C3.21402 14.5947 3.25804 14.5947 3.21402 14.6386C2.99388 15.4736 2.72971 16.3525 2.50958 17.1875C2.46555 17.3193 2.42152 17.4951 2.37749 17.6269Z" fill="white"/>
<path d="M12.6799 14.6826C12.2397 14.6826 11.8434 14.5947 11.4472 14.4629C10.6547 14.1992 9.8622 13.8916 9.15776 13.4082C8.67345 13.1006 8.18915 12.705 7.74888 12.3095C7.08847 11.6943 6.56014 11.0351 6.03181 10.332C5.76765 9.93645 5.50348 9.58489 5.32737 9.14543C5.15126 8.79386 5.06321 8.4423 5.01918 8.04678C4.93113 7.25576 5.10723 6.50868 5.63556 5.89344C5.72362 5.7616 5.8557 5.62976 5.98778 5.54187C6.16389 5.41003 6.34 5.36609 6.56014 5.36609C6.73625 5.36609 6.91236 5.36609 7.1325 5.36609C7.26458 5.36609 7.35263 5.41003 7.44069 5.49793C7.52874 5.58582 7.57277 5.67371 7.6168 5.80555C7.88096 6.37684 8.1011 6.99208 8.36526 7.60733C8.36526 7.65127 8.40929 7.69522 8.40929 7.73916C8.45332 7.871 8.45332 7.95889 8.36526 8.09073C8.18915 8.39835 8.01304 8.66203 7.74888 8.9257C7.70485 8.96965 7.66083 9.01359 7.66083 9.05754C7.57277 9.14543 7.57277 9.27727 7.6168 9.4091C7.70485 9.54094 7.79291 9.67278 7.88096 9.80462C8.14513 10.2001 8.40929 10.5517 8.71748 10.8593C9.11373 11.2548 9.50998 11.5624 9.99428 11.8261C10.3465 12.0459 10.6987 12.2216 11.0509 12.3974C11.0509 12.3974 11.095 12.3974 11.095 12.4414C11.2711 12.5293 11.4032 12.4853 11.5352 12.3535C11.7994 12.0459 12.1076 11.6943 12.3277 11.3427C12.4158 11.2109 12.5479 11.1669 12.724 11.2109C12.9001 11.2548 13.0762 11.3427 13.2523 11.4306C13.7806 11.6503 14.2649 11.914 14.7933 12.1777C14.8373 12.1777 14.8373 12.2216 14.8813 12.2216C15.0134 12.3095 15.1015 12.3974 15.1015 12.5732C15.1015 12.8808 15.0574 13.1884 14.9694 13.4521C14.8813 13.7158 14.7052 13.9355 14.4851 14.1113C14.1329 14.375 13.7806 14.5947 13.3404 14.6826C13.0322 14.6826 12.812 14.6826 12.6799 14.6826Z" fill="white"/>
</svg>
