<svg width="261" height="47" viewBox="0 0 261 47" fill="none" xmlns="http://www.w3.org/2000/svg">
<path d="M30.4478 14.9066H45.6952C45.9804 14.9065 46.2628 14.9624 46.5263 15.0711C46.7898 15.1798 47.0293 15.3391 47.2309 15.54C47.4325 15.7409 47.5924 15.9794 47.7015 16.2419C47.8105 16.5044 47.8666 16.7857 47.8664 17.0698V32.4692L30.4478 14.9066Z" fill="#F36E1E"/>
<path fill-rule="evenodd" clip-rule="evenodd" d="M93.9828 15.4033H104.548V39.3267H93.9828V15.4033ZM172.964 27.6005C172.964 20.6754 179.387 15.0604 187.312 15.0604C195.237 15.0604 201.661 20.6754 201.661 27.6005C201.661 34.5255 195.237 40.1406 187.312 40.1406C179.387 40.1406 172.964 34.5255 172.964 27.6005ZM182.741 27.6005C182.741 23.4209 184.789 20.0333 187.312 20.0333C189.836 20.0333 191.883 23.4209 191.883 27.6005C191.883 31.7762 189.836 35.1638 187.312 35.1638C184.789 35.1638 182.741 31.7762 182.741 27.6005ZM205.067 15.0951H214.092L221.144 25.669V15.0951H230.72V39.4084H223.491L214.742 26.5517V39.4084H205.067V15.0951ZM134.394 15.404L134.376 30.7828C134.376 35.5022 130.536 39.3312 125.794 39.3312H117.495C112.756 39.3312 108.912 35.5029 108.912 30.7828V15.4033H119.249V34.6156H124.057V15.4033L134.394 15.404ZM256.351 39.4463L243.83 39.4296C239.092 39.4296 234.242 35.6013 234.242 30.8812V23.6223C234.242 18.9028 239.092 15.0739 243.83 15.0739H260.983V19.9387H243.882V34.7919H251.91V29.3744H247.911V25.3144H260.931V37.5116C260.931 37.5116 261 39.4431 258.652 39.4431L256.351 39.4463ZM164.544 39.7249L149.159 39.7082C143.673 39.7082 137.954 35.0949 137.954 29.4123V20.6716C137.954 14.9838 143.673 10.3757 149.159 10.3757H168.896V16.2346H150.123V33.5791H158.517V27.5966H154.784V22.7054H168.836V37.3951C168.836 37.3951 168.918 39.7204 166.201 39.7204L164.544 39.7249ZM90.818 39.3267V33.9046H79.0325V10.4909H67.0008L66.9711 36.9969C66.9711 36.9969 66.8852 39.3267 69.6068 39.3267H90.818ZM47.8709 37.0741H18.0427C13.7597 37.0741 10.2856 33.6138 10.2856 29.348V0.0373535H0V29.9689C0 39.3524 7.64085 46.9627 17.0666 46.9627H47.8709V37.0741ZM24.367 32.4692H19.7313C18.4975 32.469 17.3142 31.9807 16.4417 31.1118C15.5692 30.2428 15.079 29.0642 15.0788 27.8353V6.22119C15.0788 2.80789 17.8566 0.041214 21.2836 0.041214H46.5763V8.91515H24.3289V23.4376H33.5782L42.4445 32.4698L24.367 32.4692Z" fill="#003370"/>
</svg>
